<svg width="180px" height="131px" viewBox="0 0 180 131" version="1.1" xmlns="http://www.w3.org/2000/svg" xmlns:xlink="http://www.w3.org/1999/xlink">
    <g id="Page-1" stroke="none" stroke-width="1" fill="none" fill-rule="evenodd">
        <g id="car-wash-machine">
            <path d="M133.067,80.665 C131.205,65.497 122.84,54.375 112.487,54.375 L66.519,54.375 C56.166,54.375 47.795,65.503 45.933,80.665 C39.393,84.406 35.95,91.531 35.95,99.813 C35.95,104.998 37.352,109.706 39.954,113.471 L39.954,130.101 L61.787,130.101 L61.787,121.777 L117.219,121.777 L117.219,130.101 L139.046,130.101 L139.046,113.471 C141.648,109.718 143.056,105.01 143.056,99.813 C143.056,91.525 139.601,84.406 133.067,80.665 Z M57.007,77.843 C55.587,77.843 54.274,78.01 52.997,78.207 C55.056,68.254 60.408,60.927 66.524,60.927 L112.499,60.927 C118.603,60.927 123.955,68.254 126.02,78.207 C125.334,78.106 124.612,78.07 123.89,78.022 C123.89,77.962 123.914,77.903 123.914,77.849 C123.914,71.554 118.794,66.434 112.493,66.434 C106.204,66.434 101.084,71.554 101.084,77.849 L57.007,77.849 L57.007,77.843 Z M110.238,106.155 L68.78,106.155 C67.569,106.155 66.596,105.176 66.596,103.971 C66.596,102.772 67.575,101.793 68.78,101.793 L110.238,101.793 C111.443,101.793 112.416,102.772 112.416,103.971 C112.416,105.177 111.437,106.155 110.238,106.155 Z M110.238,99.908 L68.78,99.908 C67.569,99.908 66.596,98.929 66.596,97.724 C66.596,96.519 67.575,95.54 68.78,95.54 L110.238,95.54 C111.443,95.54 112.416,96.519 112.416,97.724 C112.416,98.929 111.437,99.908 110.238,99.908 Z M105.447,77.843 C105.447,73.965 108.609,70.796 112.5,70.796 C116.378,70.796 119.547,73.958 119.547,77.843 L105.447,77.843 Z" id="Shape" fill="#2B2B2B" fill-rule="nonzero"></path>
            <path d="M54.454,106.943 C50.516,106.943 47.318,103.763 47.318,99.813 C47.318,95.863 50.516,92.677 54.454,92.677 C58.398,92.677 61.596,95.863 61.596,99.813 C61.596,103.763 58.398,106.943 54.454,106.943 Z" id="Path" fill="#FFCB00"></path>
            <path d="M124.552,106.943 C120.608,106.943 117.41,103.763 117.41,99.813 C117.41,95.863 120.608,92.677 124.552,92.677 C128.49,92.677 131.688,95.863 131.688,99.813 C131.677,103.763 128.491,106.943 124.552,106.943 Z" id="Path" fill="#FFCB00"></path>
            <rect id="Rectangle-path" fill="#2B2B2B" fill-rule="nonzero" x="35.95" y="0.011" width="107.105" height="8.73" rx="3"></rect>
            <g id="Group" transform="translate(0.000000, 2.000000)" fill-rule="nonzero">
                <path d="M83.614,31.807 C83.614,35.059 86.245,37.702 89.503,37.702 C92.755,37.702 95.386,35.065 95.386,31.807 C95.386,28.549 89.503,18.226 89.503,18.226 C89.503,18.226 83.614,28.555 83.614,31.807 Z" id="Shape" fill="#FFCB00"></path>
                <path d="M65.874,22.075 C65.874,25.327 68.505,27.964 71.769,27.964 C75.021,27.964 77.664,25.327 77.664,22.075 C77.664,18.811 71.769,8.482 71.769,8.482 C71.769,8.482 65.874,18.805 65.874,22.075 Z" id="Shape" fill="#FFCB00"></path>
                <path d="M101.341,22.075 C101.341,25.327 103.972,27.964 107.236,27.964 C110.488,27.964 113.125,25.327 113.125,22.075 C113.125,18.811 107.236,8.482 107.236,8.482 C107.236,8.482 101.341,18.805 101.341,22.075 Z" id="Shape" fill="#FFCB00"></path>
                <path d="M179.006,54.127 L179.006,53.385 L179.006,53.385 C179.006,51.175861 177.215139,49.385 175.006,49.385 L167.359,49.385 L167.359,3.201 L167.359,3.201 C167.359,1.54414575 166.015854,0.201 164.359,0.201 L68.5381812,0.201 L14.647,0.201 L14.647,0.201 C12.9901458,0.201 11.647,1.54414575 11.647,3.201 L11.647,49.385 L4,49.385 L4,49.385 C1.790861,49.385 -2.705415e-16,51.175861 0,53.385 L0,54.127 L0,54.127 C2.705415e-16,56.336139 1.790861,58.127 4,58.127 L10.949,58.127 L10.949,58.127 C11.3344948,58.127 11.647,58.4395052 11.647,58.825 L11.647,58.825 L11.647,58.825 C11.647,59.2104948 11.3344948,59.523 10.949,59.523 L4,59.523 L4,59.523 C1.790861,59.523 3.65367767e-15,61.313861 0,63.523 L0,64.247 L0,64.247 C2.705415e-16,66.456139 1.790861,68.247 4,68.247 L10.952,68.247 L10.952,68.247 C11.3358379,68.247 11.647,68.5581621 11.647,68.942 L11.647,68.942 L11.647,68.942 C11.647,69.3258379 11.3358379,69.637 10.952,69.637 L4,69.637 L4,69.637 C1.790861,69.637 -7.1463071e-16,71.427861 -4.4408921e-16,73.637 L0,74.367 L-4.4408921e-16,74.367 C-1.73547709e-16,76.576139 1.790861,78.367 4,78.367 L10.946,78.367 L10.946,78.367 C11.3331516,78.367 11.647,78.6808484 11.647,79.068 L11.647,79.068 L11.647,79.068 C11.647,79.4551516 11.3331516,79.769 10.946,79.769 L4,79.769 L4,79.769 C1.790861,79.769 -2.705415e-16,81.559861 0,83.769 L0,84.498 L0,84.498 C2.705415e-16,86.707139 1.790861,88.498 4,88.498 L10.9515,88.498 L10.9515,88.498 C11.335614,88.498 11.647,88.809386 11.647,89.1935 L11.647,89.1935 L11.647,89.1935 C11.647,89.577614 11.335614,89.889 10.9515,89.889 L4,89.889 L4,89.889 C1.790861,89.889 -2.705415e-16,91.679861 0,93.889 L0,94.618 L0,94.618 C-7.57789684e-15,96.827139 1.790861,98.618 4,98.618 L10.949,98.618 L10.949,98.618 C11.3344948,98.618 11.647,98.9305052 11.647,99.316 L11.647,99.316 L11.647,99.316 C11.647,99.7014948 11.3344948,100.014 10.949,100.014 L4,100.014 L4,100.014 C1.790861,100.014 -2.705415e-16,101.804861 0,104.014 L0,104.744 L0,104.744 C-7.57789684e-15,106.953139 1.790861,108.744 4,108.744 L10.955,108.744 L10.955,108.744 C11.337181,108.744 11.647,109.053819 11.647,109.436 L11.647,109.436 L11.647,109.436 C11.647,109.818181 11.337181,110.128 10.955,110.128 L4,110.128 L4,110.128 C1.790861,110.128 -2.705415e-16,111.918861 0,114.128 L0,114.864 L0,114.864 C2.705415e-16,117.073139 1.790861,118.864 4,118.864 L10.946,118.864 L10.946,118.864 C11.3331516,118.864 11.647,119.177848 11.647,119.565 L11.647,119.565 L11.647,119.565 C11.647,119.952152 11.3331516,120.266 10.946,120.266 L4,120.266 L4,120.266 C1.790861,120.266 -2.705415e-16,122.056861 0,124.266 L0,124.995 L-4.4408921e-16,124.995 C7.67489063e-15,127.204139 1.790861,128.995 4,128.995 L23.656,128.995 L23.656,128.995 C25.865139,128.995 27.656,127.204139 27.656,124.995 L27.656,124.266 L27.656,124.266 C27.656,122.056861 25.865139,120.266 23.656,120.266 L16.71,120.266 L16.71,120.266 C16.3228484,120.266 16.009,119.952152 16.009,119.565 L16.009,119.565 L16.009,119.565 C16.009,119.177848 16.3228484,118.864 16.71,118.864 L23.656,118.864 L23.656,118.864 C25.865139,118.864 27.656,117.073139 27.656,114.864 L27.656,114.128 L27.656,114.128 C27.656,111.918861 25.865139,110.128 23.656,110.128 L16.701,110.128 L16.701,110.128 C16.318819,110.128 16.009,109.818181 16.009,109.436 L16.009,109.436 L16.009,109.436 C16.009,109.053819 16.318819,108.744 16.701,108.744 L23.656,108.744 L23.656,108.744 C25.865139,108.744 27.656,106.953139 27.656,104.744 L27.656,104.014 L27.656,104.014 C27.656,101.804861 25.865139,100.014 23.656,100.014 L16.707,100.014 L16.707,100.014 C16.3215052,100.014 16.009,99.7014948 16.009,99.316 L16.009,99.316 L16.009,99.316 C16.009,98.9305052 16.3215052,98.618 16.707,98.618 L23.656,98.618 L23.656,98.618 C25.865139,98.618 27.656,96.827139 27.656,94.618 L27.656,93.889 L27.656,93.889 C27.656,91.679861 25.865139,89.889 23.656,89.889 L16.7045,89.889 L16.7045,89.889 C16.320386,89.889 16.009,89.577614 16.009,89.1935 L16.009,89.1935 L16.009,89.1935 C16.009,88.809386 16.320386,88.498 16.7045,88.498 L23.656,88.498 L23.656,88.498 C25.865139,88.498 27.656,86.707139 27.656,84.498 L27.656,83.769 L27.656,83.769 C27.656,81.559861 25.865139,79.769 23.656,79.769 L16.71,79.769 L16.71,79.769 C16.3228484,79.769 16.009,79.4551516 16.009,79.068 L16.009,79.068 L16.009,79.068 C16.009,78.6808484 16.3228484,78.367 16.71,78.367 L23.656,78.367 L23.656,78.367 C25.865139,78.367 27.656,76.576139 27.656,74.367 L27.656,73.637 L27.656,73.637 C27.656,71.427861 25.865139,69.637 23.656,69.637 L16.704,69.637 L16.704,69.637 C16.3201621,69.637 16.009,69.3258379 16.009,68.942 L16.009,68.942 L16.009,68.942 C16.009,68.5581621 16.3201621,68.247 16.704,68.247 L23.656,68.247 L23.656,68.247 C25.865139,68.247 27.656,66.456139 27.656,64.247 L27.656,63.523 L27.656,63.523 C27.656,61.313861 25.865139,59.523 23.656,59.523 L16.707,59.523 L16.707,59.523 C16.3215052,59.523 16.009,59.2104948 16.009,58.825 L16.009,58.825 L16.009,58.825 C16.009,58.4395052 16.3215052,58.127 16.707,58.127 L23.656,58.127 L23.656,58.127 C25.865139,58.127 27.656,56.336139 27.656,54.127 L27.656,53.385 L27.656,53.385 C27.656,51.175861 25.865139,49.385 23.656,49.385 L16.009,49.385 L16.009,7.568 L16.009,7.568 C16.009,5.91114575 17.3521458,4.568 19.009,4.568 L159.991,4.568 L159.991,4.568 C161.647854,4.568 162.991,5.91114575 162.991,7.568 L162.991,49.385 L155.35,49.385 L155.35,49.385 C153.140861,49.385 151.35,51.175861 151.35,53.385 L151.35,54.127 L151.35,54.127 C151.35,56.336139 153.140861,58.127 155.35,58.127 L162.293,58.127 L162.293,58.127 C162.678495,58.127 162.991,58.4395052 162.991,58.825 L162.991,58.825 L162.991,58.825 C162.991,59.2104948 162.678495,59.523 162.293,59.523 L155.35,59.523 L155.35,59.523 C153.140861,59.523 151.35,61.313861 151.35,63.523 L151.35,64.247 L151.35,64.247 C151.35,66.456139 153.140861,68.247 155.35,68.247 L162.296,68.247 L162.296,68.247 C162.679838,68.247 162.991,68.5581621 162.991,68.942 L162.991,68.942 L162.991,68.942 C162.991,69.3258379 162.679838,69.637 162.296,69.637 L155.35,69.637 L155.35,69.637 C153.140861,69.637 151.35,71.427861 151.35,73.637 L151.35,74.367 L151.35,74.367 C151.35,76.576139 153.140861,78.367 155.35,78.367 L162.29,78.367 L162.29,78.367 C162.677152,78.367 162.991,78.6808484 162.991,79.068 L162.991,79.068 L162.991,79.068 C162.991,79.4551516 162.677152,79.769 162.29,79.769 L155.35,79.769 L155.35,79.769 C153.140861,79.769 151.35,81.559861 151.35,83.769 L151.35,84.498 L151.35,84.498 C151.35,86.707139 153.140861,88.498 155.35,88.498 L162.2955,88.498 L162.2955,88.498 C162.679614,88.498 162.991,88.809386 162.991,89.1935 L162.991,89.1935 L162.991,89.1935 C162.991,89.577614 162.679614,89.889 162.2955,89.889 L155.35,89.889 L155.35,89.889 C153.140861,89.889 151.35,91.679861 151.35,93.889 L151.35,94.618 L151.35,94.618 C151.35,96.827139 153.140861,98.618 155.35,98.618 L162.293,98.618 L162.293,98.618 C162.678495,98.618 162.991,98.9305052 162.991,99.316 L162.991,99.316 L162.991,99.316 C162.991,99.7014948 162.678495,100.014 162.293,100.014 L155.35,100.014 L155.35,100.014 C153.140861,100.014 151.35,101.804861 151.35,104.014 L151.35,104.744 L151.35,104.744 C151.35,106.953139 153.140861,108.744 155.35,108.744 L162.299,108.744 L162.299,108.744 C162.681181,108.744 162.991,109.053819 162.991,109.436 L162.991,109.436 L162.991,109.436 C162.991,109.818181 162.681181,110.128 162.299,110.128 L155.35,110.128 L155.35,110.128 C153.140861,110.128 151.35,111.918861 151.35,114.128 L151.35,114.864 L151.35,114.864 C151.35,117.073139 153.140861,118.864 155.35,118.864 L162.29,118.864 L162.29,118.864 C162.677152,118.864 162.991,119.177848 162.991,119.565 L162.991,119.565 L162.991,119.565 C162.991,119.952152 162.677152,120.266 162.29,120.266 L155.35,120.266 L155.35,120.266 C153.140861,120.266 151.35,122.056861 151.35,124.266 L151.35,124.995 L151.35,124.995 C151.35,127.204139 153.140861,128.995 155.35,128.995 L175.006,128.995 L175.006,128.995 C177.215139,128.995 179.006,127.204139 179.006,124.995 L179.006,124.266 L179.006,124.266 C179.006,122.056861 177.215139,120.266 175.006,120.266 L168.06,120.266 L168.06,120.266 C167.672848,120.266 167.359,119.952152 167.359,119.565 L167.359,119.565 L167.359,119.565 C167.359,119.177848 167.672848,118.864 168.06,118.864 L175.006,118.864 L175.006,118.864 C177.215139,118.864 179.006,117.073139 179.006,114.864 L179.006,114.128 L179.006,114.128 C179.006,111.918861 177.215139,110.128 175.006,110.128 L168.051,110.128 L168.051,110.128 C167.668819,110.128 167.359,109.818181 167.359,109.436 L167.359,109.436 L167.359,109.436 C167.359,109.053819 167.668819,108.744 168.051,108.744 L175.006,108.744 L175.006,108.744 C177.215139,108.744 179.006,106.953139 179.006,104.744 L179.006,104.014 L179.006,104.014 C179.006,101.804861 177.215139,100.014 175.006,100.014 L168.057,100.014 L168.057,100.014 C167.671505,100.014 167.359,99.7014948 167.359,99.316 L167.359,99.316 L167.359,99.316 C167.359,98.9305052 167.671505,98.618 168.057,98.618 L175.006,98.618 L175.006,98.618 C177.215139,98.618 179.006,96.827139 179.006,94.618 L179.006,93.889 L179.006,93.889 C179.006,91.679861 177.215139,89.889 175.006,89.889 L168.0545,89.889 L168.0545,89.889 C167.670386,89.889 167.359,89.577614 167.359,89.1935 L167.359,89.1935 L167.359,89.1935 C167.359,88.809386 167.670386,88.498 168.0545,88.498 L175.006,88.498 L175.006,88.498 C177.215139,88.498 179.006,86.707139 179.006,84.498 L179.006,83.769 L179.006,83.769 C179.006,81.559861 177.215139,79.769 175.006,79.769 L168.06,79.769 L168.06,79.769 C167.672848,79.769 167.359,79.4551516 167.359,79.068 L167.359,79.068 L167.359,79.068 C167.359,78.6808484 167.672848,78.367 168.06,78.367 L175.006,78.367 L175.006,78.367 C177.215139,78.367 179.006,76.576139 179.006,74.367 L179.006,73.637 L179.006,73.637 C179.006,71.427861 177.215139,69.637 175.006,69.637 L168.054,69.637 L168.054,69.637 C167.670162,69.637 167.359,69.3258379 167.359,68.942 L167.359,68.942 L167.359,68.942 C167.359,68.5581621 167.670162,68.247 168.054,68.247 L175.006,68.247 L175.006,68.247 C177.215139,68.247 179.006,66.456139 179.006,64.247 L179.006,63.523 L179.006,63.523 C179.006,61.313861 177.215139,59.523 175.006,59.523 L168.057,59.523 L168.057,59.523 C167.671505,59.523 167.359,59.2104948 167.359,58.825 L167.359,58.825 L167.359,58.825 C167.359,58.4395052 167.671505,58.127 168.057,58.127 L175.006,58.127 L175.006,58.127 C177.215139,58.127 179.006,56.336139 179.006,54.127 Z" id="Shape" fill="#2B2B2B"></path>
            </g>
        </g>
    </g>
</svg>