<svg width="689px" height="689px" viewBox="0 0 689 689" version="1.1" xmlns="http://www.w3.org/2000/svg" xmlns:xlink="http://www.w3.org/1999/xlink">
    <g id="Page-1" stroke="none" stroke-width="1" fill="none" fill-rule="evenodd">
        <g id="Artboard" transform="translate(-2281.000000, -349.000000)">
            <g id="73e5ffc5fa175af8b15ed0a5c124b489" transform="translate(2281.000000, 349.000000)">
                <path d="M311.181929,688.078285 C207.27651,677.438281 114.83099,621.799634 56.2097449,534.374501 C34.6468571,502.04688 14.4338469,453.956029 6.74938776,416.097574 C0.956163265,387.002714 -0.12655102,376.496237 0.0140612245,344.028061 C0.0140612245,308.868259 2.43962245,288.797023 10.5248265,257.8117 C16.8594082,233.699512 23.0604082,216.994565 35.5889592,191.807131 C104.720969,52.10964 259.29601,-23.8602702 412.25401,6.71744296 C526.403031,29.6138322 623.024735,110.847523 665.742735,220.0938 C680.035969,256.869983 687.312653,292.163312 688.789082,333.25453 C692.023163,426.470523 657.390367,516.327255 592.160347,583.681152 C537.855898,639.713353 470.741673,674.198492 392.715939,686.187822 C375.870592,688.752949 328.42802,689.961721 311.181929,688.078285 Z" id="Shape" fill="#2B2B2B" fill-rule="nonzero" transform="translate(344.499671, 344.499460) scale(-1, 1) rotate(-180.000000) translate(-344.499671, -344.499460) "></path>
                <path d="M338.805204,229.026769 C337.72952,228.626188 335.437541,227.002779 333.8205,225.526953 C330.72,222.835327 330.72,222.694772 330.72,177.977238 C330.72,153.323913 331.120745,132.177432 331.52852,130.961633 C332.604204,128.403534 338.938786,124.89669 342.847806,124.89669 C344.464847,124.89669 347.565347,126.646598 349.723745,128.804115 L353.632765,132.711541 L353.632765,175.953248 C353.632765,200.065437 353.091408,220.544283 352.282888,222.427718 C351.607949,224.311153 349.182388,226.735725 347.02399,227.951524 C342.714224,230.102014 342.039286,230.242569 338.805204,229.026769 Z" id="Shape" fill="#FFCB00" fill-rule="nonzero" transform="translate(342.176383, 177.344928) scale(-1, 1) rotate(-180.000000) translate(-342.176383, -177.344928) "></path>
                <path d="M228.298041,241.172249 C227.222357,240.76464 224.930378,239.148259 223.313337,237.672433 C217.386531,232.415681 218.729378,228.64881 239.89152,192.139681 C250.669449,173.417772 260.512306,157.387488 261.721571,156.305215 C265.49701,153.480062 272.4995,154.147698 276.141357,157.921596 C282.208776,163.845984 281.126061,166.945219 259.696755,203.995485 C238.408061,240.76464 235.848918,243.863875 228.298041,241.172249 Z" id="Shape" fill="#FFCB00" fill-rule="nonzero" transform="translate(249.803243, 198.235666) scale(-1, 1) rotate(-180.000000) translate(-249.803243, -198.235666) "></path>
                <path d="M441.902102,240.856687 C440.418643,240.182024 438.260245,238.565643 437.05098,237.216316 C433.008378,232.634227 396.758541,168.787175 396.758541,166.222048 C396.758541,162.722232 400.400398,156.24968 402.825959,155.307962 C406.868561,153.825108 412.661786,154.499771 415.361541,156.924343 C417.65352,158.807778 448.243714,210.539 455.253235,224.278239 C458.487316,230.476709 457.003857,236.134043 451.611378,239.500332 C446.886806,242.339541 445.944704,242.473068 441.902102,240.856687 Z" id="Shape" fill="#FFCB00" fill-rule="nonzero" transform="translate(426.854346, 198.211412) scale(-1, 1) rotate(-180.000000) translate(-426.854346, -198.211412) "></path>
                <path d="M147.446,285.500491 C142.594878,283.750583 139.360796,279.168494 139.360796,274.319351 C139.360796,270.953062 140.302898,268.52849 142.461296,266.638027 C144.078337,265.021646 156.480337,257.340322 170.084571,249.532499 C197.307102,233.769269 201.216122,232.694025 206.742184,238.62544 C210.243429,242.399339 211.051949,249.806581 208.359224,253.17287 C205.392306,256.672686 151.622184,287.116872 149.73798,286.308682 C149.597367,286.308682 148.521684,285.9081 147.446,285.500491 Z" id="Shape" fill="#FFCB00" fill-rule="nonzero" transform="translate(174.661271, 260.812827) scale(-1, 1) rotate(-180.000000) translate(-174.661271, -260.812827) "></path>
                <path d="M523.436112,285.816905 C518.451408,283.933469 470.207347,255.372719 468.583276,253.355756 C465.756969,249.581858 466.424878,242.582225 470.200316,238.941854 C475.993541,233.017466 479.76898,234.226238 508.608551,250.931185 C536.50602,267.094995 539.198745,269.653094 537.581704,277.467945 C536.372439,282.991752 528.420816,287.707368 523.436112,285.816905 Z" id="Shape" fill="#FFCB00" fill-rule="nonzero" transform="translate(502.396180, 260.971034) scale(-1, 1) rotate(-180.000000) translate(-502.396180, -260.971034) "></path>
                <path d="M446.886806,453.538267 C434.491837,445.189307 409.554255,428.210278 391.366061,415.953893 L358.350306,393.591612 L354.307704,395.615602 C348.106704,398.981892 333.686918,399.523028 325.601714,396.824374 C309.832051,391.57465 299.054122,376.212002 299.187704,358.972946 C299.187704,347.384197 302.555367,339.302291 310.50699,331.360941 C318.458612,323.412563 326.543816,320.046274 338.130265,320.046274 C361.443776,319.779219 379.097643,338.501129 377.614184,361.805127 L377.072827,370.428169 L431.384306,407.204352 C491.088265,447.480351 491.622592,447.887961 488.522092,458.127383 C486.497276,464.859962 481.37899,468.767387 474.777245,468.767387 C470.340929,468.76036 466.024133,466.469315 446.886806,453.538267 Z" id="Shape" fill="#FFFFFF" fill-rule="nonzero" transform="translate(394.352828, 394.405419) scale(-1, 1) rotate(-180.000000) translate(-394.352828, -394.405419) "></path>
                <polygon id="Shape" fill="#FFCB00" fill-rule="nonzero" transform="translate(149.530577, 371.908201) scale(-1, 1) rotate(-180.000000) translate(-149.530577, -371.908201) " points="119.140755 371.908201 119.140755 325.433731 149.463786 325.433731 179.920398 325.433731 179.512622 333.923246 179.111878 342.272205 159.974551 342.679814 140.703643 343.080396 140.703643 353.7204 140.703643 364.360404 157.949735 364.768013 175.062245 365.175622 175.46299 373.665137 175.870765 382.014096 158.216898 382.014096 140.696612 382.014096 140.696612 391.438301 140.696612 400.869533 158.891837 400.869533 177.087061 400.869533 177.087061 409.626102 177.087061 418.38267 148.113908 418.38267 119.140755 418.38267 119.140755 371.908201"></polygon>
                <polygon id="Shape" fill="#FFCB00" fill-rule="nonzero" transform="translate(544.973153, 370.474470) scale(1, -1) translate(-544.973153, -370.474470) " points="516.007031 370.47447 516.007031 324 526.784959 324 537.562888 324 537.562888 342.855437 537.562888 361.710873 554.408235 361.710873 571.253582 361.710873 571.253582 369.792778 571.253582 377.741157 554.80898 378.148766 538.230796 378.556375 537.830051 389.062852 537.422276 399.435802 555.751082 399.435802 573.946306 399.435802 573.946306 408.19237 573.946306 416.948939 544.973153 416.948939 516 416.948939 516 370.47447"></polygon>
                <circle id="Oval" fill="#FFFFFF" cx="281.5" cy="538.5" r="21.5"></circle>
                <circle id="Oval" fill="#FFFFFF" cx="344.5" cy="538.5" r="21.5"></circle>
                <circle id="Oval" fill="#FFFFFF" cx="407.5" cy="538.5" r="21.5"></circle>
            </g>
        </g>
    </g>
</svg>