<svg width="540px" height="353px" viewBox="0 0 540 353" version="1.1" xmlns="http://www.w3.org/2000/svg" xmlns:xlink="http://www.w3.org/1999/xlink">
    <g id="Page-1" stroke="none" stroke-width="1" fill="none" fill-rule="evenodd">
        <g id="Artboard" transform="translate(-902.000000, -1219.000000)">
            <g id="security" transform="translate(902.000000, 1219.000000)">
                <g id="Group-9" transform="translate(338.000000, 29.000000)" fill-rule="nonzero" fill="#2B2B2B">
                    <path d="M144.127,27.464 C140.827,39.864 136.327,63.964 134.627,76.764 C134.727,76.964 134.827,77.064 134.927,77.164 C137.327,77.964 139.627,79.064 141.827,80.364 C143.627,81.464 145.227,82.664 146.727,84.064 C146.727,82.664 146.827,81.364 146.827,79.964 C147.127,66.564 150.527,41.464 152.827,27.464 C153.527,23.264 154.327,18.864 155.727,14.564 C149.427,16.664 145.827,21.264 144.127,27.464 Z" id="Shape"></path>
                    <path d="M122.127,73.564 L122.927,67.464 C124.127,58.464 129.327,41.564 131.327,32.264 C125.127,34.364 121.527,38.864 119.927,45.064 C117.927,52.764 112.427,69.164 111.127,77.464 C114.627,76.164 118.327,75.464 122.027,75.264 C122.027,74.664 122.027,74.164 122.127,73.564 Z" id="Shape"></path>
                    <path d="M195.527,4.664 C189.827,0.064 180.827,-1.636 174.127,5.964 C169.327,11.364 167.027,28.264 166.327,32.764 C163.627,48.864 160.927,72.064 160.527,88.264 C160.527,89.364 160.427,90.864 160.327,91.964 C159.927,99.064 158.227,105.664 155.227,112.164 C138.827,147.864 105.727,193.064 105.727,193.064 L103.927,195.764 C102.527,197.764 99.827,198.464 97.627,197.264 C95.227,195.964 94.427,192.864 95.827,190.564 L139.527,119.264 C144.227,111.364 141.527,100.164 132.927,94.864 C124.327,89.564 113.127,92.264 108.427,100.264 L63.027,158.664 C60.027,162.464 54.427,167.964 50.527,170.764 C9.627,200.164 4.227,230.064 0.627,245.364 C0.627,245.364 0.327,248.764 0.227,253.764 L0.227,253.764 C0.227,257.864 0.327,262.964 1.027,268.164 L3.727,317.264 C3.727,320.864 6.727,323.764 10.327,323.764 L87.127,323.364 C90.727,323.364 93.627,320.364 93.627,316.764 L95.027,276.264 L168.027,188.364 C178.827,176.964 186.127,164.064 188.427,148.664 L189.127,144.164 L201.827,20.864 C202.427,14.764 200.327,8.564 195.527,4.664 Z" id="Shape"></path>
                </g>
                <g id="Group-10" transform="translate(0.000000, 29.000000)" fill-rule="nonzero" fill="#2B2B2B">
                    <path d="M13.427,148.564 C15.727,164.064 23.027,176.864 33.827,188.264 L106.827,276.164 L108.227,316.664 C108.227,320.264 111.127,323.164 114.727,323.264 L191.527,323.664 C195.127,323.664 198.027,320.764 198.127,317.164 L200.827,268.064 C201.527,262.964 201.627,257.764 201.627,253.664 L201.627,253.664 L201.627,253.664 C201.627,248.664 201.227,245.264 201.227,245.264 C197.627,229.964 192.127,200.164 151.327,170.664 C147.427,167.864 141.827,162.364 138.827,158.564 L93.427,100.164 C88.727,92.264 77.527,89.564 68.927,94.764 C60.327,99.964 57.627,111.264 62.327,119.164 L106.027,190.464 C107.427,192.764 106.627,195.864 104.227,197.164 C102.027,198.364 99.327,197.664 97.927,195.664 L96.127,192.964 C96.127,192.964 63.127,147.864 46.627,112.064 C43.627,105.564 41.927,98.964 41.527,91.864 C41.427,90.764 41.427,89.264 41.327,88.164 C40.827,71.864 38.227,48.764 35.527,32.664 C34.727,28.164 32.427,11.264 27.727,5.864 C21.027,-1.736 12.027,-0.036 6.327,4.564 C1.627,8.364 -0.573,14.664 0.127,20.664 L12.827,143.964 L13.427,148.564 Z" id="Shape"></path>
                    <path d="M46.127,14.664 C47.427,19.064 48.327,23.364 49.027,27.564 C51.427,41.464 54.827,66.664 55.027,80.064 C55.027,81.464 55.127,82.764 55.127,84.164 C56.627,82.864 58.227,81.564 60.027,80.464 C62.227,79.064 64.627,78.064 66.927,77.264 C67.027,77.064 67.127,76.964 67.227,76.864 C65.527,64.164 61.027,40.064 57.727,27.564 C56.027,21.264 52.427,16.664 46.127,14.664 Z" id="Shape"></path>
                    <path d="M70.527,32.264 C72.527,41.564 77.727,58.464 78.927,67.464 L79.727,73.564 C79.827,74.164 79.827,74.764 79.827,75.364 C83.527,75.464 87.227,76.264 90.727,77.564 C89.527,69.264 84.027,52.864 81.927,45.164 C80.327,38.864 76.727,34.364 70.527,32.264 Z" id="Shape"></path>
                </g>
                <g id="car-wash-machine" transform="translate(154.000000, 0.000000)">
                    <path d="M211.269779,57.6306685 C207.219157,24.3806883 189.02181,0 166.499739,0 L66.5002614,0 C43.9781898,0 25.7677908,24.393841 21.717168,57.6306685 C7.48995388,65.8313657 0,81.4501756 0,99.6052611 C0,110.97137 3.04993184,121.291842 8.7103617,129.54515 L8.7103617,166 L56.2061976,166 L56.2061976,147.752846 L176.793802,147.752846 L176.793802,166 L224.276586,166 L224.276586,129.54515 C229.937016,121.318147 233,110.997676 233,99.6052611 C233,81.437023 225.483941,65.8313657 211.269779,57.6306685 Z M45.8077139,51.4445237 C42.7186245,51.4445237 39.8623046,51.8106067 37.0842997,52.2424531 C41.5634792,30.4243457 53.2063003,14.3627288 66.5111385,14.3627288 L166.525844,14.3627288 C179.804577,14.3627288 191.447398,30.4243457 195.93963,52.2424531 C194.447295,52.0210496 192.876646,51.9421335 191.305996,51.836912 C191.305996,51.7053852 191.358206,51.5760505 191.358206,51.4576764 C191.358206,37.6583208 180.220081,26.4346988 166.512791,26.4346988 C152.831606,26.4346988 141.693481,37.6583208 141.693481,51.4576764 L45.8077139,51.4576764 L45.8077139,51.4445237 Z M161.60723,113.507646 L71.4188748,113.507646 C68.7844472,113.507646 66.6677684,111.361567 66.6677684,108.72007 C66.6677684,106.091725 68.7974997,103.945646 71.4188748,103.945646 L161.60723,103.945646 C164.228605,103.945646 166.345284,106.091725 166.345284,108.72007 C166.345284,111.363759 164.215553,113.507646 161.60723,113.507646 Z M161.60723,99.8135119 L71.4188748,99.8135119 C68.7844472,99.8135119 66.6677684,97.6674326 66.6677684,95.0259356 C66.6677684,92.3844386 68.7974997,90.2383593 71.4188748,90.2383593 L161.60723,90.2383593 C164.228605,90.2383593 166.345284,92.3844386 166.345284,95.0259356 C166.345284,97.6674326 164.215553,99.8135119 161.60723,99.8135119 Z M151.184817,51.4445237 C151.184817,42.9435069 158.063479,35.9966986 166.528019,35.9966986 C174.964278,35.9966986 181.858169,42.9281621 181.858169,51.4445237 L151.184817,51.4445237 Z" id="Shape" fill="#2B2B2B" fill-rule="nonzero"></path>
                    <path d="M39.9936966,116 C31.7194285,116 25,109.312772 25,101.006309 C25,92.6998458 31.7194285,86 39.9936966,86 C48.2805715,86 55,92.6998458 55,101.006309 C55,109.312772 48.2805715,116 39.9936966,116 Z" id="Path" fill="#FFCB00"></path>
                    <path d="M192.006303,116 C183.719428,116 177,109.312772 177,101.006309 C177,92.6998458 183.719428,86 192.006303,86 C200.280572,86 207,92.6998458 207,101.006309 C206.976888,109.312772 200.282673,116 192.006303,116 Z" id="Path" fill="#FFCB00"></path>
                </g>
            </g>
        </g>
    </g>
</svg>