<svg width="612px" height="426px" viewBox="0 0 612 426" version="1.1" xmlns="http://www.w3.org/2000/svg" xmlns:xlink="http://www.w3.org/1999/xlink">
    <g id="Page-1" stroke="none" stroke-width="1" fill="none" fill-rule="evenodd">
        <g id="Artboard" transform="translate(-1741.000000, -1164.000000)">
            <g id="logistics-truck" transform="translate(1741.000000, 1164.000000)">
                <path d="M12.57,292.084 L329.419,292.084 C334.154,292.084 338.029,288.209 338.029,283.475 L338.029,26.809 C338.029,12.543 326.465,0.979 312.199,0.979 L29.791,0.979 C15.525,0.979 3.961,12.543 3.961,26.809 L3.961,283.473 C3.96,288.209 7.835,292.084 12.57,292.084 Z M113.48,361.221 L8.61,361.221 C3.874,361.221 0,357.348 0,352.612 L0,326.438 C0,321.702 3.874,317.827 8.61,317.827 L137.244,317.827 C124.673,328.762 115.977,344.002 113.48,361.221 Z M603.39,317.828 L582.468,317.828 L582.468,200.817 C582.468,187.128 578.335,173.696 570.672,162.331 L518.238,84.668 C505.408,65.726 484.055,54.361 461.153,54.361 L379.875,54.361 C370.317,54.361 362.654,62.11 362.654,71.581 L362.654,317.828 L229.543,317.828 C242.2,328.762 250.896,344.002 253.393,361.223 L393.736,361.223 C398.73,327.041 428.176,300.608 463.736,300.608 C499.296,300.608 528.655,327.042 533.649,361.223 L603.39,361.223 C608.126,361.223 612,357.348 612,352.612 L612,326.438 C612,321.703 608.126,317.828 603.39,317.828 Z M183.394,317.828 C153.862,317.828 129.839,341.849 129.839,371.469 C129.839,401 153.861,425.022 183.394,425.022 C213.012,425.022 236.948,401.001 236.948,371.469 C236.947,341.85 213.012,317.828 183.394,317.828 Z M463.735,317.828 C434.117,317.828 410.18,341.849 410.18,371.469 C410.18,401 434.117,425.022 463.735,425.022 C493.267,425.022 517.289,401.001 517.289,371.469 C517.29,341.85 493.269,317.828 463.735,317.828 Z" id="Shape" fill="#2B2B2B" fill-rule="nonzero"></path>
                <path d="M463.735,398.246 C448.925,398.246 436.958,386.191 436.958,371.469 C436.958,356.658 448.926,344.692 463.735,344.692 C478.544,344.692 490.512,356.659 490.512,371.469 C490.513,386.191 478.545,398.246 463.735,398.246 Z" id="Path" fill="#FFCB00"></path>
                <path d="M183.394,398.246 C168.584,398.246 156.617,386.191 156.617,371.469 C156.617,356.658 168.585,344.692 183.394,344.692 C198.203,344.692 210.171,356.659 210.171,371.469 C210.171,386.191 198.202,398.246 183.394,398.246 Z" id="Path" fill="#FFCB00"></path>
                <path d="M76.417,119.128 C76.417,113.226 81.201,108.441 87.104,108.441 L171.632,108.441 L171.632,78.323 C171.632,68.802 183.146,64.034 189.877,70.769 L262.715,143.642 C266.886,147.815 266.886,154.58 262.715,158.752 L189.877,231.613 C183.145,238.347 171.632,233.58 171.632,224.058 L171.632,193.933 L87.103,193.933 C81.201,193.933 76.416,189.148 76.416,183.246 L76.416,119.128 L76.417,119.128 Z" id="Path" fill="#FFCB00"></path>
                <path d="M517.634,177.828 L410.354,177.828 C405.619,177.828 401.744,174.039 401.744,169.218 L401.744,109.723 C401.744,104.988 405.619,101.113 410.354,101.113 L475.705,101.113 C478.546,101.113 481.129,102.49 482.765,104.729 L524.696,164.311 C528.654,169.994 524.608,177.828 517.634,177.828 Z" id="Path" fill="#FFCB00"></path>
            </g>
        </g>
    </g>
</svg>