<svg width="426px" height="391px" viewBox="0 0 426 391" version="1.1" xmlns="http://www.w3.org/2000/svg" xmlns:xlink="http://www.w3.org/1999/xlink">
    <g id="Page-1" stroke="none" stroke-width="1" fill="none" fill-rule="evenodd">
        <g id="Artboard" transform="translate(-177.000000, -1181.000000)">
            <g id="Group-8" transform="translate(177.000000, 1181.000000)">
                <g id="car-wash-machine" transform="translate(0.000000, 162.000000)">
                    <path d="M291.969395,79.5025487 C286.371538,33.6336001 261.223274,0 230.098351,0 L91.9016488,0 C60.7767259,0 35.6104233,33.6517444 30.012567,79.5025487 C10.3509234,90.8155587 0,112.361989 0,137.407258 C0,153.087011 4.21492727,167.324288 12.0374956,178.709875 L12.0374956,229 L77.6755177,229 L77.6755177,203.827721 L244.324482,203.827721 L244.324482,229 L309.944466,229 L309.944466,178.709875 C317.767035,167.360576 322,153.1233 322,137.407258 C322,112.343845 311.613,90.8155587 291.969395,79.5025487 Z M63.3050809,70.9686501 C59.0360391,70.9686501 55.0886785,71.4736682 51.2495472,72.0694081 C57.4396579,41.9709347 73.5297369,19.8136439 91.9166807,19.8136439 L230.134428,19.8136439 C248.485295,19.8136439 264.575374,41.9709347 270.783523,72.0694081 C268.721155,71.763978 266.550557,71.6551119 264.37996,71.509957 C264.37996,71.3285133 264.452113,71.1500938 264.452113,70.9867945 C264.452113,51.9503341 249.059511,36.4671447 230.116389,36.4671447 C211.209344,36.4671447 195.816742,51.9503341 195.816742,70.9867945 L63.3050809,70.9867945 L63.3050809,70.9686501 Z M223.337031,156.585849 L98.6990458,156.585849 C95.0583347,156.585849 92.1331391,153.625294 92.1331391,149.981301 C92.1331391,146.355453 95.0763729,143.394897 98.6990458,143.394897 L223.337031,143.394897 C226.959703,143.394897 229.884899,146.355453 229.884899,149.981301 C229.884899,153.628318 226.941665,156.585849 223.337031,156.585849 Z M223.337031,137.694543 L98.6990458,137.694543 C95.0583347,137.694543 92.1331391,134.733988 92.1331391,131.089996 C92.1331391,127.446003 95.0763729,124.485448 98.6990458,124.485448 L223.337031,124.485448 C226.959703,124.485448 229.884899,127.446003 229.884899,131.089996 C229.884899,134.733988 226.941665,137.694543 223.337031,137.694543 Z M208.933524,70.9686501 C208.933524,59.2413438 218.439658,49.6580963 230.137434,49.6580963 C241.796127,49.6580963 251.323306,59.2201754 251.323306,70.9686501 L208.933524,70.9686501 Z" id="Shape" fill="#2B2B2B" fill-rule="nonzero"></path>
                    <path d="M54.9911752,160 C43.4071999,160 34,150.63788 34,139.008832 C34,127.379784 43.4071999,118 54.9911752,118 C66.5928001,118 76,127.379784 76,139.008832 C76,150.63788 66.5928001,160 54.9911752,160 Z" id="Path" fill="#FFCB00"></path>
                    <path d="M265.008825,160 C253.4072,160 244,150.63788 244,139.008832 C244,127.379784 253.4072,118 265.008825,118 C276.5928,118 286,127.379784 286,139.008832 C285.967643,150.63788 276.595742,160 265.008825,160 Z" id="Path" fill="#FFCB00"></path>
                </g>
                <g id="repair-tools" transform="translate(263.000000, 0.000000)" fill-rule="nonzero">
                    <path d="M89.2053289,124.673517 L83.1600019,121.230061 C83.5680406,119.040091 83.8095192,116.802619 83.8095192,114.502144 C83.8095192,112.201669 83.5677061,109.969146 83.1600019,107.778515 L89.1996431,104.340667 C90.4869717,103.610017 91.4201093,102.404032 91.8070771,100.991222 C92.1923727,99.579072 91.9893567,98.0719209 91.2485324,96.8065605 L84.1683926,84.7097678 C82.6242003,82.0701917 79.2026957,81.1663628 76.5263634,82.6893475 L70.5017728,86.1219179 C67.0374576,83.2233982 63.0366719,80.9374368 58.6713271,79.3989486 L58.6713271,72.5156651 C58.6713271,69.4696959 56.1712541,67 53.0815318,67 L38.9165697,67 C35.8325332,67 33.322092,69.469366 33.322092,72.5156651 L33.322092,79.3989486 C28.9567471,80.9374368 24.9666641,83.2233982 21.50168,86.1219179 L15.4677245,82.6893475 C12.7913922,81.1663628 9.37457005,82.0701917 7.83037781,84.7097678 L0.749903525,96.8026021 C-0.79395426,99.4415185 0.122794914,102.811745 2.79444482,104.334729 L8.83375159,107.778185 C8.43675003,109.968816 8.19025454,112.201009 8.19025454,114.501814 C8.19025454,116.802619 8.43675003,119.045039 8.83375159,121.236329 L2.79444482,124.679455 C0.122794914,126.20244 -0.79395426,129.572666 0.749903525,132.211582 L7.82435757,144.304416 C8.57086766,145.569777 9.78796005,146.494387 11.2247913,146.875711 C12.6569401,147.251426 14.1860818,147.056146 15.4677245,146.320878 L21.5130515,142.881381 C24.9669985,145.78056 28.961764,148.066522 33.3227609,149.599732 L33.3227609,156.482356 C33.3227609,159.528325 35.8332021,162 38.9172386,162 L53.0822007,162 C56.171923,162 58.671996,159.528655 58.671996,156.482356 L58.671996,149.599732 C63.0373408,148.066522 67.0381265,145.78056 70.492408,142.881381 L76.5317148,146.321208 C79.2033647,147.844193 82.6248692,146.939704 84.1690615,144.304746 L91.2492013,132.211912 C92.7923902,129.572666 91.8816612,126.197822 89.2053289,124.673517 Z M46.0027298,137.962441 C32.8876311,137.962441 22.2204301,127.435143 22.2204301,114.502144 C22.2204301,101.569145 32.8879656,91.0418477 46.0027298,91.0418477 C59.1208385,91.0418477 69.7897119,101.569145 69.7897119,114.502144 C69.7897119,127.435143 59.1208385,137.962441 46.0027298,137.962441 Z" id="Shape" fill="#2B2B2B"></path>
                    <path d="M45.9978013,96.5 C35.7999095,96.5 27.5,104.573822 27.5,114.500658 C27.5,124.426178 35.7995712,132.5 45.9978013,132.5 C56.2004288,132.5 64.5,124.426178 64.5,114.500658 C64.5003383,104.573822 56.2004288,96.5 45.9978013,96.5 Z" id="Shape" fill="#FFCB00"></path>
                    <path d="M156.874348,100.989939 C151.386114,95.0644891 143.547822,92.6644337 136.145823,93.8614605 L75.6881253,28.5901552 C77.4223194,21.2819564 75.6199547,13.2658779 70.1380391,7.35209854 C65.289944,2.12319195 58.6185342,-0.310206865 52.0272665,0.0315626325 C51.162996,0.0745755741 50.3958271,0.619739601 50.0762565,1.42798278 C49.7453796,2.2355591 49.916305,3.15950376 50.5025723,3.80169698 L56.8753615,10.6780993 C57.445667,11.2979524 57.7545963,12.116532 57.7233376,12.9607861 C57.6904161,13.8067072 57.3282805,14.5966116 56.7090917,15.1744521 L44.8929615,26.1737615 C43.612684,27.3667872 41.606805,27.292098 40.4129878,26.0090453 L34.0458517,19.1313093 C33.4472804,18.4891161 32.541775,18.2547122 31.714749,18.5224594 C30.8890531,18.7888729 30.2908143,19.5167586 30.1850667,20.3816855 C29.3623637,26.9436598 31.2721388,33.7873856 36.1242243,39.0176259 C41.6061399,44.9307384 49.4401082,47.3314607 56.8421076,46.1344339 L117.310447,111.410074 C115.571597,118.726608 117.374294,126.74102 122.862195,132.671137 C127.704305,137.885039 134.369396,140.306768 140.960664,139.969 C141.829258,139.927987 142.587115,139.39316 142.917992,138.580582 C143.248869,137.771672 143.078276,136.841726 142.481368,136.199532 L136.118887,129.328465 C134.929393,128.051414 134.992908,126.024804 136.283494,124.826444 L148.090979,113.832803 C149.381232,112.635776 151.381458,112.710798 152.580929,113.99952 L158.948065,120.875255 C159.544973,121.516781 160.451809,121.758187 161.277505,121.490107 C162.10054,121.213357 162.697449,120.491139 162.814503,119.630881 C163.640531,113.06924 161.716124,106.218845 156.874348,100.989939 Z" id="Shape" fill="#2B2B2B"></path>
                </g>
            </g>
        </g>
    </g>
</svg>