<svg width="534px" height="480px" viewBox="0 0 534 480" version="1.1" xmlns="http://www.w3.org/2000/svg" xmlns:xlink="http://www.w3.org/1999/xlink">
    <g id="Page-1" stroke="none" stroke-width="1" fill="none" fill-rule="evenodd">
        <g id="Artboard" transform="translate(-1123.000000, -1108.000000)">
            <g id="Group-7" transform="translate(1123.000000, 1108.000000)">
                <g id="shower">
                    <path d="M0,49.7328093 L0,430.457558 C0,457.727335 22.2739663,480 49.6425895,480 L430.389798,480 C457.758421,480 480,457.727334 480,430.457558 L480,49.7328093 C480,22.3333987 457.758421,1.39055049e-14 430.389798,1.39055049e-14 L49.6425895,1.39055049e-14 C22.2739663,0 0,22.3374414 0,49.7328093 Z" id="svg_3" fill="#FFFFFF" fill-rule="nonzero"></path>
                    <path d="M263.032553,259 C290.654807,259 313,236.607681 313,209.000015 C313,181.359759 290.654807,159 263.032553,159 C235.410269,159 213,181.359759 213,209.000015 C213,236.607682 235.410269,259 263.032553,259 L263.032553,259 Z" id="svg_4" fill="#2B2B2B" fill-rule="nonzero"></path>
                    <path d="M215.262253,266.61117 L313.221358,266.61117 L411.779103,167.650182 C432.920895,146.390461 460.56662,173.975477 439.428825,195.235198 L331.293213,303.781296 L331.386271,452 L201.704366,452 L201.704366,380.028687 L143.120595,380.028687 C130.921732,380.028687 121,370.127765 121,357.882181 C121,352.630004 122.771579,347.884062 125.772768,344.024905 L194.816214,274.83563 C200.122868,269.680621 207.362908,266.61117 215.262253,266.61117 Z" id="svg_5" fill="#2B2B2B" fill-rule="nonzero"></path>
                    <path d="M225.341705,392.177103 L248.25102,392.084055 C253.68712,392.177103 260.607633,385.248465 260.607633,379.903211 L260.607633,337.602442 C260.607633,332.257098 253.68712,325.454025 248.25102,325.454025 L225.341705,325.454025 C220.285799,325.454025 216.176333,331.876488 215.642416,336.715627 C248.663545,336.715627 248.441102,379.806013 215.642416,379.806013 C215.642416,385.151326 219.937967,392.177103 225.341705,392.177103 Z" id="svg_5-path" fill="#FFCB00"></path>
                    <polygon id="svg_6" fill="#2B2B2B" fill-rule="nonzero" points="38.5953168 81.8583842 50.6652511 94 109 34.1757875 96.9300657 22.0671078 70.4695083 32.113104 58.3348927 20 34 44.3196089 46.0738544 56.5546255"></polygon>
                    <path d="M128.158018,271.080193 C127.033983,278.327148 132.034335,284.858211 139.09485,285.830066 C146.219317,287.017891 152.971781,281.830608 153.847881,274.89562 C154.93994,267.676624 150.035605,261.145531 142.879103,260.145688 C135.786612,259.081848 129.098159,263.957163 128.158018,271.080193 L128.158018,271.080193 Z" id="svg_7" fill="#FFCB00" fill-rule="nonzero"></path>
                    <path d="M138.870573,240.355991 C139.849413,233.464661 135.173547,227.139726 128.317489,226.128087 C121.461401,225.148765 115.139221,229.89143 114.128018,236.718067 C113.149178,243.734934 117.889769,249.837262 124.713465,250.848901 C131.504768,251.929351 137.952341,247.089586 138.870572,240.355991 L138.870573,240.355991 Z" id="svg_8" fill="#FFCB00" fill-rule="nonzero"></path>
                    <path d="M124.885079,206.795069 C125.782542,200.194906 121.332039,194.133544 114.73413,193.113116 C108.140271,192.219208 102.087403,196.717294 101.128474,203.284784 C100.169485,209.982889 104.681485,215.848292 111.246666,216.836108 C117.840404,217.958556 123.987557,213.174787 124.885079,206.795069 L124.885079,206.795069 Z" id="svg_9" fill="#FFCB00" fill-rule="nonzero"></path>
                    <path d="M109.883862,173.155349 C110.751911,166.877767 106.665257,161.022608 100.592711,160.119884 C94.4924856,159.213024 88.9788316,163.548514 88.1147575,169.826096 C87.246679,176.165755 91.3967607,181.859445 97.4058495,182.86153 C103.414968,183.863569 109.07921,179.304516 109.883862,173.155349 L109.883862,173.155349 Z" id="svg_10" fill="#FFCB00" fill-rule="nonzero"></path>
                    <path d="M94.8863459,139.006384 C95.73372,133.226714 91.7497618,127.88306 86.0388634,127.099113 C80.203464,126.319162 74.9303347,130.222912 74.1150336,135.974563 C73.2676595,141.850193 77.1914106,146.909874 82.9303838,147.881804 C88.7376789,148.757759 94.1032066,144.662059 94.8863459,139.006384 L94.8863459,139.006384 Z" id="svg_11" fill="#FFCB00" fill-rule="nonzero"></path>
                    <path d="M61.119809,102.527749 C60.2625136,108.089423 64.1020369,112.951283 69.5626742,113.874834 C75.0233114,114.765833 80.1020093,110.790921 80.8942902,105.420477 C81.686631,99.9523923 77.9405248,94.8057434 72.4839323,94.1059289 C66.8648633,93.3125696 61.8511496,97.0596944 61.119809,102.527749 L61.119809,102.527749 Z" id="svg_12" fill="#FFCB00" fill-rule="nonzero"></path>
                    <path d="M177.02102,222.369228 C177.368752,215.261611 183.497707,209.641819 190.633367,210.017827 C197.833751,210.430206 203.332054,216.43003 202.984382,223.756002 C202.733689,230.956607 196.572388,236.390408 189.339688,235.977998 C182.203968,235.792022 176.61271,229.662822 177.02102,222.369228 Z" id="svg_13" fill="#FFCB00" fill-rule="nonzero"></path>
                    <path d="M168.864748,208.988718 C161.999721,208.703295 156.605859,202.905007 157.022623,195.862991 C157.37403,188.980112 163.246067,183.695601 170.143728,184.013633 C177.070016,184.396928 182.308634,190.162606 181.985853,197.139314 C181.699774,204.112007 175.82373,209.274141 168.864748,208.988718 Z" id="svg_14" fill="#FFCB00" fill-rule="nonzero"></path>
                    <path d="M148.390441,180.979713 C141.784354,180.656881 136.662712,175.127557 137.017364,168.435285 C137.371986,161.776081 142.94723,156.631649 149.615227,157.020692 C156.18835,157.343463 161.27694,163.001135 160.988304,169.66446 C160.728495,176.224324 155.025475,181.36462 148.390441,180.979712 L148.390441,180.979713 Z" id="svg_15" fill="#FFCB00" fill-rule="nonzero"></path>
                    <path d="M127.438228,152.979245 C121.38316,152.667347 116.674187,147.604171 117.017661,141.449232 C117.361135,135.38629 122.477553,130.699127 128.564489,131.015081 C134.619498,131.295026 139.300491,136.482109 138.984938,142.513082 C138.761276,148.575964 133.521098,153.355199 127.438227,152.979245 L127.438228,152.979245 Z" id="svg_16" fill="#FFCB00" fill-rule="nonzero"></path>
                    <path d="M106.997771,124.987506 C101.218059,124.672952 96.6710762,119.757244 97.0186821,113.962386 C97.3016132,108.228043 102.196172,103.816371 108.008222,104.005883 C113.787905,104.288203 118.270213,109.23619 117.987311,115.031017 C117.732665,120.733111 112.745117,125.269781 106.997771,124.987506 L106.997771,124.987506 Z" id="svg_17" fill="#FFCB00" fill-rule="nonzero"></path>
                    <path d="M77.0166301,87.5434387 C77.3029376,82.0557453 81.9374253,77.7222686 87.4962893,78.0139023 C92.993802,78.2398161 97.2764683,82.9553033 96.9860589,88.4758378 C96.732448,93.9635535 91.9670827,98.3914882 86.5063996,97.972525 C81.0088568,97.6850028 76.6975957,93.0640035 77.0166301,87.5434387 L77.0166301,87.5434387 Z" id="svg_18" fill="#FFCB00" fill-rule="nonzero"></path>
                    <path d="M212.691767,166.978432 C205.510131,167.389398 199.272099,161.877529 199.018045,154.701577 C198.638956,147.400778 204.2803,141.324856 211.461847,141.01054 C218.518448,140.728447 224.691985,146.13964 224.978302,153.508967 C225.389564,160.495525 219.905636,166.696383 212.691767,166.978432 Z" id="svg_19" fill="#FFCB00" fill-rule="nonzero"></path>
                    <path d="M195.983594,132.566704 C196.324936,139.058107 191.299822,144.710735 184.635467,144.988988 C177.998889,145.267256 172.295102,140.238714 172.013265,133.651927 C171.703652,126.941909 176.851786,121.416455 183.488364,121.010999 C190.029699,120.732746 195.642253,125.765259 195.983594,132.566704 L195.983594,132.566704 Z" id="svg_20" fill="#FFCB00" fill-rule="nonzero"></path>
                    <path d="M168.988137,112.050756 C169.272054,118.319497 164.425822,123.696185 158.087278,123.985376 C151.752652,124.303131 146.269805,119.402971 146.014299,113.166805 C145.697965,106.674068 150.669887,101.329939 157.008491,101.012243 C163.221374,100.723053 168.639387,105.590578 168.988137,112.050756 L168.988137,112.050756 Z" id="svg_21" fill="#FFCB00" fill-rule="nonzero"></path>
                    <path d="M140.990143,91.0644731 C141.236831,96.837642 136.82386,101.803775 131.042063,101.98754 C125.260236,102.267218 120.254358,97.8045066 120.007641,92.0313377 C119.788801,86.1942226 124.297253,81.3240161 130.079081,81.0123738 C135.765396,80.7327115 140.711589,85.227388 140.990144,91.0644736 L140.990143,91.0644731 Z" id="svg_22" fill="#FFCB00" fill-rule="nonzero"></path>
                    <path d="M93.0133872,72.5430228 C92.7270205,66.9249057 97.0714489,62.202707 102.536819,62.0136266 C108.002189,61.7259455 112.731205,66.0289496 112.988883,71.5484581 C113.246592,77.0679969 108.992149,81.7901351 103.498152,81.9832841 C98.0001116,82.3038627 93.2056356,77.9720977 93.0133872,72.5430228 Z" id="svg_23" fill="#FFCB00" fill-rule="nonzero"></path>
                    <path d="M117.55057,45.1051842 C122.969382,44.3118911 128.104237,48.0912222 128.895154,53.5588207 C129.686071,59.0264191 125.918061,64.1726836 120.434376,64.872425 C114.983112,65.7633346 109.880679,61.886387 109.089762,56.4187586 C108.359681,50.9511301 112.164239,45.8984773 117.55057,45.1051842 Z" id="svg_24" fill="#FFCB00" fill-rule="nonzero"></path>
                    <path d="M164.885373,68.9997892 C165.739804,74.7320314 161.722776,80.0832593 155.996913,80.877828 C150.271051,81.7656212 144.893423,77.7116826 144.099758,72.0726577 C143.310123,66.3403778 147.294724,60.8919048 152.988217,60.1013871 C158.653343,59.3068184 164.06334,63.2675099 164.885373,68.9997897 L164.885373,68.9997892 Z" id="svg_25" fill="#FFCB00" fill-rule="nonzero"></path>
                    <path d="M199.874603,83.3636508 C200.788716,89.4820766 196.604906,94.99918 190.593017,95.8830237 C184.617294,96.7668824 178.951749,92.5413039 178.102041,86.612553 C177.284639,80.623268 181.46845,75.0093296 187.411836,74.1254562 C193.35938,73.2133544 198.992796,77.3743657 199.874603,83.3636508 L199.874603,83.3636508 Z" id="svg_26" fill="#FFCB00" fill-rule="nonzero"></path>
                    <path d="M235.857279,97.8630161 C236.8649,104.137474 232.423321,109.913852 226.127795,110.885947 C219.892691,111.765653 213.943827,107.463509 213.121574,101.189066 C212.206712,94.9145781 216.555533,89.013688 222.786595,88.1339967 C229.086133,87.1618724 234.974575,91.5885432 235.857279,97.8630161 L235.857279,97.8630161 Z" id="svg_27" fill="#FFCB00" fill-rule="nonzero"></path>
                    <path d="M271.862375,112.279567 C272.867671,118.820891 268.25137,124.889529 261.745251,125.862906 C255.1787,126.864329 248.990184,122.2658 248.109576,115.784557 C247.228908,109.243262 251.752665,103.078477 258.22676,102.109088 C264.793251,101.231858 270.889252,105.738272 271.862375,112.279566 L271.862375,112.279567 Z" id="svg_28" fill="#FFCB00" fill-rule="nonzero"></path>
                    <path d="M306.844295,126.733222 C307.937614,133.566888 303.151899,139.901273 296.299681,140.867866 C289.539602,141.866354 283.095925,137.093562 282.126698,130.351771 C281.157589,123.518134 285.851224,117.091786 292.67137,116.125252 C299.519631,115.154743 305.871169,119.931452 306.844295,126.733222 Z" id="svg_29" fill="#FFCB00" fill-rule="nonzero"></path>
                    <path d="M328.095149,130.123682 C335.223626,129.125054 341.855723,134.28337 342.856393,141.632919 C343.921052,148.887588 338.945917,155.721299 331.91348,156.85201 C324.753009,157.949704 318.028767,152.820266 317.152236,145.470702 C316.059538,138.083997 320.966672,131.25027 328.095149,130.123682 Z" id="svg_30" fill="#FFCB00" fill-rule="nonzero"></path>
                </g>
                <g id="drink" transform="translate(483.000000, 152.000000) scale(-1, 1) translate(-483.000000, -152.000000) translate(432.000000, 100.000000)">
                    <path d="M65.6756005,103.999802 C71.1349151,100.52762 75.5890461,95.6427103 78.5062616,89.8667708 L87.8575333,89.8667708 C95.6556672,89.8667708 102,83.590135 102,75.8752108 C102,68.1602865 95.6556672,61.8836507 87.8575333,61.8836507 L82.2936748,61.8836507 L82.2936748,54.8172343 C82.2936748,53.2559018 81.0143138,51.9905884 79.4365421,51.9905884 L2.85713276,51.9905884 C1.279361,51.9905884 0,53.2557036 0,54.8172343 L0,73.977637 C0,86.5689513 6.63353086,97.6492603 16.6184748,104 L65.6756005,103.999802 Z M87.8579339,67.5367442 C92.5053309,67.5367442 96.2863353,71.2774036 96.2863353,75.8752108 C96.2863353,80.4730179 92.5053309,84.2136773 87.8579339,84.2136773 L80.7741833,84.2136773 C81.7587385,80.9693552 82.2940754,77.5344237 82.2940754,73.9774389 L82.2940754,67.5367442 L87.8579339,67.5367442 Z" id="Shape" fill="#2B2B2B" fill-rule="nonzero"></path>
                    <path d="M26.7329471,21.3593454 C22.1844863,16.8594187 22.1844863,9.53740343 26.7329471,5.03688236 L26.9466413,4.82546844 C28.0625773,3.72203435 28.0625773,1.93224802 26.9466413,0.828615792 C25.8307052,-0.275412709 24.0222159,-0.275412709 22.9060795,0.828615792 L22.6923854,1.04002972 C15.9164585,7.74365432 15.9164585,18.6525734 22.6923854,25.3565943 C24.8958184,27.5365156 26.1088881,30.4342932 26.1088881,33.5175286 C26.1088881,36.600764 24.8952175,39.4985416 22.6923854,41.6790573 C21.5764493,42.7824914 21.5764493,44.5722777 22.6923854,45.67591 C23.2501532,46.2283205 23.9815599,46.5041295 24.7129667,46.5041295 C25.4443734,46.5041295 26.1751794,46.2283205 26.7335479,45.67591 C30.0162665,42.4288139 31.8237545,38.1107786 31.8237545,33.5175286 C31.8231536,28.9244768 30.0152651,24.6064414 26.7329471,21.3593454 Z" id="Path" fill="#FFCB00"></path>
                    <path d="M43.2801739,21.3593454 C41.0767409,19.1794241 39.8630703,16.281052 39.8630703,13.1978167 C39.8630703,10.1145813 41.0767409,7.21680368 43.2801739,5.03628795 L43.493868,4.82487402 C44.6098041,3.72143993 44.6098041,1.9316536 43.493868,0.828021376 C42.377932,-0.276007125 40.5694426,-0.276007125 39.4533063,0.828021376 L39.2396122,1.0394353 C35.9568936,4.28653134 34.1488048,8.60516113 34.1488048,13.1978167 C34.1488048,17.7904722 35.9566933,22.1089039 39.2396122,25.356198 C41.4430451,27.5361193 42.6561149,30.4338969 42.6561149,33.5171323 C42.6561149,36.6003677 41.4424443,39.4981453 39.2396122,41.678661 C38.1236761,42.7820951 38.1236761,44.5718815 39.2396122,45.6755137 C39.7973799,46.2279242 40.5287867,46.5037332 41.2601934,46.5037332 C41.9916002,46.5037332 42.7224061,46.2279242 43.2807747,45.6755137 C46.5634933,42.4284177 48.3709812,38.1103823 48.3709812,33.5171323 C48.3709812,28.9244768 46.5628925,24.6064414 43.2801739,21.3593454 Z" id="Path" fill="#FFCB00"></path>
                    <path d="M59.8092757,21.358751 C55.2614157,16.8594187 55.2614157,9.53740343 59.8092757,5.03688236 L60.0229699,4.82546844 C61.1389059,3.72203435 61.1389059,1.93224802 60.0229699,0.828615792 C58.9070338,-0.275412709 57.0985445,-0.275412709 55.9824081,0.828615792 L55.768714,1.04002972 C48.9927871,7.74365432 48.9927871,18.6525734 55.768714,25.3565943 C57.972147,27.5365156 59.1858175,30.4342932 59.1858175,33.5175286 C59.1858175,36.600764 57.972147,39.4985416 55.7693148,41.6784629 C54.6533788,42.7824914 54.6533788,44.5722777 55.7693148,45.67591 C56.3270826,46.2283205 57.0584893,46.5041295 57.7898961,46.5041295 C58.5213029,46.5041295 59.2521088,46.2283205 59.8098765,45.6765044 C63.0925951,42.4288139 64.9006839,38.1107786 64.9006839,33.5177267 C64.9000831,28.9244768 63.0921946,24.6064414 59.8092757,21.358751 Z" id="Path" fill="#FFCB00"></path>
                </g>
            </g>
        </g>
    </g>
</svg>