<svg width="330px" height="330px" viewBox="0 0 330 330" version="1.1" xmlns="http://www.w3.org/2000/svg" xmlns:xlink="http://www.w3.org/1999/xlink">
    <defs>
        <rect id="path-1" x="0" y="0" width="330" height="330" rx="17"></rect>
    </defs>
    <g id="Page-1" stroke="none" stroke-width="1" fill="none" fill-rule="evenodd">
        <g id="Artboard" transform="translate(-90.000000, -112.000000)">
            <g id="Group-6" transform="translate(90.000000, 112.000000)">
                <g id="Group-4">
                    <g id="Rectangle-2">
                        <use fill="#FFFFFF" fill-rule="evenodd" xlink:href="#path-1"></use>
                        <rect stroke="#2B2B2B" stroke-width="16" x="8" y="8" width="314" height="314" rx="17"></rect>
                    </g>
                    <g id="Group-3" transform="translate(45.000000, 45.000000)">
                        <g id="Group" transform="translate(0.000000, 128.000000)">
                            <rect id="Rectangle" fill="#2B2B2B" x="0" y="0" width="113" height="113" rx="17"></rect>
                            <path d="M23,24 L89.0832861,90.0832861" id="Line" stroke="#FFCB00" stroke-width="10" stroke-linecap="round" stroke-linejoin="round"></path>
                            <path d="M23,24 L89.0832861,90.0832861" id="Line" stroke="#FFCB00" stroke-width="10" stroke-linecap="round" stroke-linejoin="round" transform="translate(56.500000, 57.000000) scale(-1, 1) translate(-56.500000, -57.000000) "></path>
                        </g>
                        <g id="Group" transform="translate(128.000000, 128.000000)">
                            <rect id="Rectangle" fill="#2B2B2B" x="0" y="0" width="113" height="113" rx="17"></rect>
                            <g id="Group-5" transform="translate(9.000000, 9.000000)" fill="#FFCB00">
                                <path d="M24.4223023,11.4137046 L36.671966,24.5498608 L36.671966,24.5498608 C38.3669238,26.3674805 38.2674867,29.2149872 36.449867,30.909945 C35.5714291,31.7291016 34.4019663,32.1630851 33.2018054,32.1152891 L7.94401585,31.1094065 L7.94401585,31.1094065 C5.46070297,31.0105095 3.52775203,28.9172147 3.62664909,26.4339018 C3.67383734,25.2490012 4.18682381,24.13062 5.0540922,23.3218792 L18.062218,11.1916056 L18.062218,11.1916056 C19.8798377,9.49664779 22.7273444,9.59608492 24.4223023,11.4137046 Z" id="Triangle" transform="translate(20.751954, 21.050769) rotate(-47.000000) translate(-20.751954, -21.050769) "></path>
                                <path d="M24.4223023,64.7441413 L36.671966,77.8802975 L36.671966,77.8802975 C38.3669238,79.6979172 38.2674867,82.5454239 36.449867,84.2403817 C35.5714291,85.0595383 34.4019663,85.4935218 33.2018054,85.4457258 L7.94401585,84.4398432 L7.94401585,84.4398432 C5.46070297,84.3409462 3.52775203,82.2476514 3.62664909,79.7643385 C3.67383734,78.5794379 4.18682381,77.4610567 5.0540922,76.6523158 L18.062218,64.5220423 L18.062218,64.5220423 C19.8798377,62.8270845 22.7273444,62.9265216 24.4223023,64.7441413 Z" id="Triangle" transform="translate(20.751954, 74.381205) scale(1, -1) rotate(-47.000000) translate(-20.751954, -74.381205) "></path>
                                <path d="M78.658141,11.4137046 L90.9078048,24.5498608 L90.9078048,24.5498608 C92.6027626,26.3674805 92.5033255,29.2149872 90.6857057,30.909945 C89.8072678,31.7291016 88.637805,32.1630851 87.4376441,32.1152891 L62.1798546,31.1094065 L62.1798546,31.1094065 C59.6965417,31.0105095 57.7635908,28.9172147 57.8624878,26.4339018 C57.9096761,25.2490012 58.4226626,24.13062 59.289931,23.3218792 L72.2980567,11.1916056 L72.2980567,11.1916056 C74.1156765,9.49664779 76.9631832,9.59608492 78.658141,11.4137046 Z" id="Triangle" transform="translate(74.987793, 21.050769) scale(-1, 1) rotate(-47.000000) translate(-74.987793, -21.050769) "></path>
                                <path d="M78.658141,64.7441413 L90.9078048,77.8802975 L90.9078048,77.8802975 C92.6027626,79.6979172 92.5033255,82.5454239 90.6857057,84.2403817 C89.8072678,85.0595383 88.637805,85.4935218 87.4376441,85.4457258 L62.1798546,84.4398432 L62.1798546,84.4398432 C59.6965417,84.3409462 57.7635908,82.2476514 57.8624878,79.7643385 C57.9096761,78.5794379 58.4226626,77.4610567 59.289931,76.6523158 L72.2980567,64.5220423 L72.2980567,64.5220423 C74.1156765,62.8270845 76.9631832,62.9265216 78.658141,64.7441413 Z" id="Triangle" transform="translate(74.987793, 74.381205) scale(-1, -1) rotate(-47.000000) translate(-74.987793, -74.381205) "></path>
                            </g>
                        </g>
                        <g id="Group" transform="translate(128.000000, 0.000000)">
                            <rect id="Rectangle" fill="#2B2B2B" x="0" y="0" width="113" height="113" rx="17"></rect>
                            <g id="Group-2" transform="translate(36.000000, 31.000000)" stroke="#FFCB00" stroke-width="10" stroke-linecap="round" stroke-linejoin="round">
                                <path d="M20.5,0.5 L20.5,51.5" id="Line"></path>
                                <path d="M20.5,0.5 L0.5,23.5" id="Line"></path>
                                <path d="M40.5,0.5 L20.5,23.5" id="Line" transform="translate(30.500000, 12.000000) scale(-1, 1) translate(-30.500000, -12.000000) "></path>
                            </g>
                        </g>
                    </g>
                </g>
            </g>
        </g>
    </g>
</svg>