<svg width="374px" height="349px" viewBox="0 0 374 349" version="1.1" xmlns="http://www.w3.org/2000/svg" xmlns:xlink="http://www.w3.org/1999/xlink">
    <defs>
        <rect id="path-1" x="0" y="0" width="374" height="349" rx="17"></rect>
    </defs>
    <g id="Page-1" stroke="none" stroke-width="1" fill="none" fill-rule="evenodd">
        <g id="Artboard" transform="translate(-504.000000, -401.000000)">
            <g id="Group-6" transform="translate(504.000000, 401.000000)">
                <g id="Group-4">
                    <g id="Rectangle-2">
                        <use fill="#FFFFFF" fill-rule="evenodd" xlink:href="#path-1"></use>
                        <rect stroke="#2B2B2B" stroke-width="16" x="8" y="8" width="358" height="333" rx="17"></rect>
                    </g>
                    <g id="Group-3" transform="translate(67.000000, 54.000000)">
                        <g id="Group" transform="translate(0.000000, 128.000000)">
                            <rect id="Rectangle" fill="#2B2B2B" x="0" y="0" width="113" height="113" rx="17"></rect>
                            <path d="M23,24 L89.0832861,90.0832861" id="Line" stroke="#FFCB00" stroke-width="10" stroke-linecap="round" stroke-linejoin="round"></path>
                            <path d="M23,24 L89.0832861,90.0832861" id="Line" stroke="#FFCB00" stroke-width="10" stroke-linecap="round" stroke-linejoin="round" transform="translate(56.500000, 57.000000) scale(-1, 1) translate(-56.500000, -57.000000) "></path>
                        </g>
                        <g id="Group" transform="translate(128.000000, 128.000000)" fill="#2B2B2B">
                            <rect id="Rectangle" x="0" y="0" width="113" height="113" rx="17"></rect>
                        </g>
                        <g id="Group" transform="translate(128.000000, 0.000000)">
                            <rect id="Rectangle" fill="#2B2B2B" x="0" y="0" width="113" height="113" rx="17"></rect>
                            <g id="Group-2" transform="translate(36.000000, 31.000000)" stroke="#FFCB00" stroke-width="10" stroke-linecap="round" stroke-linejoin="round">
                                <path d="M20.5,0.5 L20.5,51.5" id="Line"></path>
                                <path d="M20.5,0.5 L0.5,23.5" id="Line"></path>
                                <path d="M40.5,0.5 L20.5,23.5" id="Line" transform="translate(30.500000, 12.000000) scale(-1, 1) translate(-30.500000, -12.000000) "></path>
                            </g>
                        </g>
                    </g>
                </g>
                <g id="Group-5" transform="translate(205.000000, 191.000000)" fill="#FFCB00">
                    <path d="M23.4243932,10.4124095 L35.6740569,23.5485656 L35.6740569,23.5485656 C37.3690147,25.3661853 37.2695776,28.2136921 35.4519579,29.9086499 C34.57352,30.7278065 33.4040572,31.16179 32.2038963,31.113994 L6.94610676,30.1081114 L6.94610676,30.1081114 C4.46279387,30.0092143 2.52984293,27.9159196 2.62873999,25.4326067 C2.67592824,24.2477061 3.18891472,23.1293249 4.05618311,22.320584 L17.0643089,10.1903105 L17.0643089,10.1903105 C18.8819286,8.49535265 21.7294354,8.59478977 23.4243932,10.4124095 Z" id="Triangle" transform="translate(19.754489, 20.052526) rotate(-47.000000) translate(-19.754489, -20.052526) "></path>
                    <path d="M23.4243932,63.7393326 L35.6740569,76.8754887 L35.6740569,76.8754887 C37.3690147,78.6931084 37.2695776,81.5406151 35.4519579,83.235573 C34.57352,84.0547296 33.4040572,84.488713 32.2038963,84.440917 L6.94610676,83.4350345 L6.94610676,83.4350345 C4.46279387,83.3361374 2.52984293,81.2428427 2.62873999,78.7595298 C2.67592824,77.5746291 3.18891472,76.4562479 4.05618311,75.6475071 L17.0643089,63.5172335 L17.0643089,63.5172335 C18.8819286,61.8222757 21.7294354,61.9217129 23.4243932,63.7393326 Z" id="Triangle" transform="translate(19.754489, 73.379449) scale(1, -1) rotate(-47.000000) translate(-19.754489, -73.379449) "></path>
                    <path d="M77.6551624,10.4124095 L89.9048261,23.5485656 L89.9048261,23.5485656 C91.599784,25.3661853 91.5003468,28.2136921 89.6827271,29.9086499 C88.8042892,30.7278065 87.6348264,31.16179 86.4346655,31.113994 L61.176876,30.1081114 L61.176876,30.1081114 C58.6935631,30.0092143 56.7606122,27.9159196 56.8595092,25.4326067 C56.9066975,24.2477061 57.419684,23.1293249 58.2869523,22.320584 L71.2950781,10.1903105 L71.2950781,10.1903105 C73.1126979,8.49535265 75.9602046,8.59478977 77.6551624,10.4124095 Z" id="Triangle" transform="translate(73.985258, 20.052526) scale(-1, 1) rotate(-47.000000) translate(-73.985258, -20.052526) "></path>
                    <path d="M77.6551624,63.7393326 L89.9048261,76.8754887 L89.9048261,76.8754887 C91.599784,78.6931084 91.5003468,81.5406151 89.6827271,83.235573 C88.8042892,84.0547296 87.6348264,84.488713 86.4346655,84.440917 L61.176876,83.4350345 L61.176876,83.4350345 C58.6935631,83.3361374 56.7606122,81.2428427 56.8595092,78.7595298 C56.9066975,77.5746291 57.419684,76.4562479 58.2869523,75.6475071 L71.2950781,63.5172335 L71.2950781,63.5172335 C73.1126979,61.8222757 75.9602046,61.9217129 77.6551624,63.7393326 Z" id="Triangle" transform="translate(73.985258, 73.379449) scale(-1, -1) rotate(-47.000000) translate(-73.985258, -73.379449) "></path>
                </g>
            </g>
        </g>
    </g>
</svg>