<svg width="39px" height="27px" viewBox="0 0 39 27" version="1.1" xmlns="http://www.w3.org/2000/svg" xmlns:xlink="http://www.w3.org/1999/xlink">
    <g id="Page-1" stroke="none" stroke-width="1" fill="none" fill-rule="evenodd">
        <g id="tachogrpaph">
            <path d="M36.74,2 L36.74,24.5 L2,24.5 L2,2 L35.43,2 L36.74,2 Z M36.35,3.33053355e-16 L2.35,3.33053355e-16 C1.72500476,-5.65865169e-06 1.12575259,0.248955159 0.684753513,0.691830829 C0.243754435,1.1347065 -0.00265955423,1.73501042 -1.9958739e-15,2.36 L-1.9958739e-15,24.08 C-0.00267264386,24.7067264 0.245111161,25.3085558 0.688277696,25.7517223 C1.13144423,26.1948888 1.73327357,26.4426726 2.36,26.44 L36.36,26.44 C36.9867264,26.4426726 37.5885558,26.1948888 38.0317223,25.7517223 C38.4748888,25.3085558 38.7226726,24.7067264 38.72,24.08 L38.72,2.36 C38.7226972,1.73152896 38.4735445,1.12816408 38.0282058,0.684704384 C37.582867,0.241244687 36.978454,-0.00535452657 36.35,3.33053355e-16 Z" id="Shape" fill="#2B2B2B" fill-rule="nonzero"></path>
            <path d="M32.74,17.32 L24.93,17.32 C24.7905975,17.3103523 24.6796477,17.1994025 24.67,17.06 L24.67,15.88 C24.6796477,15.7405975 24.7905975,15.6296477 24.93,15.62 L32.74,15.62 C32.8794025,15.6296477 32.9903523,15.7405975 33,15.88 L33,17.06 C32.9903523,17.1994025 32.8794025,17.3103523 32.74,17.32 Z" id="Shape" fill="#2B2B2B" fill-rule="nonzero"></path>
            <path d="M21.59,4.72 L6,4.72 C5.44771525,4.72 5,5.16771525 5,5.72 L5,15.43 C5,15.9822847 5.44771525,16.43 6,16.43 L21.59,16.43 C22.1422847,16.43 22.59,15.9822847 22.59,15.43 L22.59,5.84 C22.6079294,5.26000133 22.1683172,4.76763562 21.59,4.72 Z" id="Shape" fill="#2B2B2B" fill-rule="nonzero"></path>
            <path d="M7.41,9.84 C7.41482385,9.77029875 7.47029875,9.71482385 7.54,9.71 L11.54,9.71 C11.6097013,9.71482385 11.6651762,9.77029875 11.67,9.84 L11.67,10.43 C11.6651762,10.4997013 11.6097013,10.5551762 11.54,10.56 L7.54,10.56 C7.47029875,10.5551762 7.41482385,10.4997013 7.41,10.43 L7.41,9.84 Z" id="Path" fill="#FFCB00"></path>
            <path d="M16,12.4 C16.0111278,12.4557224 15.9936795,12.5133201 15.9534998,12.5534998 C15.9133201,12.5936795 15.8557224,12.6111278 15.8,12.6 L7.68,12.6 C7.62427757,12.6111278 7.56667987,12.5936795 7.52650017,12.5534998 C7.48632047,12.5133201 7.46887222,12.4557224 7.48,12.4 L7.48,11.94 C7.46887222,11.8842776 7.48632047,11.8266799 7.52650017,11.7865002 C7.56667987,11.7463205 7.62427757,11.7288722 7.68,11.74 L15.88,11.74 C15.9357224,11.7288722 15.9933201,11.7463205 16.0334998,11.7865002 C16.0736795,11.8266799 16.0911278,11.8842776 16.08,11.94 L16.08,12.4 L16,12.4 Z" id="Path" fill="#FFCB00"></path>
            <path d="M16,8.33 C16.0111278,8.38572243 15.9936795,8.44332013 15.9534998,8.48349983 C15.9133201,8.52367953 15.8557224,8.54112778 15.8,8.53 L7.68,8.53 C7.62427757,8.54112778 7.56667987,8.52367953 7.52650017,8.48349983 C7.48632047,8.44332013 7.46887222,8.38572243 7.48,8.33 L7.48,7.87 C7.46887222,7.81427757 7.48632047,7.75667987 7.52650017,7.71650017 C7.56667987,7.67632047 7.62427757,7.65887222 7.68,7.67 L15.88,7.67 C15.9357224,7.65887222 15.9933201,7.67632047 16.0334998,7.71650017 C16.0736795,7.75667987 16.0911278,7.81427757 16.08,7.87 L16.08,8.33 L16,8.33 Z" id="Path" fill="#FFCB00"></path>
            <path d="M32.74,20.67 L24.93,20.67 C24.7905975,20.6603523 24.6796477,20.5494025 24.67,20.41 L24.67,19.22 C24.6796477,19.0805975 24.7905975,18.9696477 24.93,18.96 L32.74,18.96 C32.8794025,18.9696477 32.9903523,19.0805975 33,19.22 L33,20.4 C32.9952402,20.5432921 32.8830105,20.6598382 32.74,20.67 Z" id="Shape" fill="#2B2B2B" fill-rule="nonzero"></path>
            <path d="M8.4,20.67 L5.77,20.67 C5.66170164,20.6649548 5.5750452,20.5782984 5.57,20.47 L5.57,19.09 C5.5750452,18.9817016 5.66170164,18.8950452 5.77,18.89 L8.4,18.89 C8.50829836,18.8950452 8.5949548,18.9817016 8.6,19.09 L8.6,20.47 C8.53333333,20.6033333 8.46666667,20.67 8.4,20.67 Z" id="Shape" fill="#FFCB00" fill-rule="nonzero"></path>
            <path d="M12.86,20.67 L10.3,20.67 C10.1917016,20.6649548 10.1050452,20.5782984 10.1,20.47 L10.1,19.09 C10.1050452,18.9817016 10.1917016,18.8950452 10.3,18.89 L12.86,18.89 C12.9682984,18.8950452 13.0549548,18.9817016 13.06,19.09 L13.06,20.47 C13.0711278,20.5257224 13.0536795,20.5833201 13.0134998,20.6234998 C12.9733201,20.6636795 12.9157224,20.6811278 12.86,20.67 Z" id="Shape" fill="#FFCB00" fill-rule="nonzero"></path>
            <circle id="Oval" fill="#FFCB00" fill-rule="nonzero" cx="31.36" cy="7.41" r="1.64"></circle>
            <circle id="Oval" fill="#FFCB00" fill-rule="nonzero" cx="31.36" cy="12.2" r="1.64"></circle>
            <circle id="Oval" fill="#FFCB00" fill-rule="nonzero" cx="26.31" cy="7.41" r="1.64"></circle>
            <circle id="Oval" fill="#FFCB00" fill-rule="nonzero" cx="26.31" cy="12.4" r="1.64"></circle>
        </g>
    </g>
</svg>