<svg width="138px" height="138px" viewBox="0 0 138 138" version="1.1" xmlns="http://www.w3.org/2000/svg" xmlns:xlink="http://www.w3.org/1999/xlink">
    <g id="Page-1" stroke="none" stroke-width="1" fill="none" fill-rule="evenodd">
        <g id="Artboard" transform="translate(-651.000000, -1237.000000)" fill-rule="nonzero">
            <g id="Group-15" transform="translate(120.000000, 1116.000000)">
                <g id="Group-12" transform="translate(0.000000, 121.000000)">
                    <g id="Group-11" transform="translate(450.000000, 0.000000)">
                        <g id="Без-названия" transform="translate(81.000000, 0.000000)">
                            <path d="M138,69 C138,67.3226855 137.918958,65.6656319 137.801737,64.0187088 L131.845152,63.5020555 L137.643994,61.9520953 C137.303907,58.6061496 136.7178,55.3325643 135.917511,52.1458115 L129.934877,52.6725953 L135.36903,50.1428751 C134.454414,46.9199421 133.315485,43.7954193 131.962373,40.7837787 L126.173661,42.3395277 L131.098408,38.896619 C129.6411,35.8951089 127.972504,33.0151642 126.11288,30.277046 L120.675832,32.8168967 L124.910275,28.5881539 C122.958032,25.8920047 120.816208,23.3434708 118.503618,20.9599186 L113.606368,24.3926968 L117.039074,19.4953438 C114.655572,17.1827048 112.107091,15.0408364 109.410999,13.0885524 L105.182344,17.323084 L107.722142,11.8859222 C104.982634,10.0248123 102.104197,8.35762826 99.1027496,6.90028944 L95.6599132,11.8251395 L97.2156295,6.03630605 C94.2040521,4.68461345 91.0795948,3.54421326 87.8567294,2.63102479 L85.3270622,8.06529217 L85.853835,2.08253282 C82.6657019,1.2822266 79.3936324,0.696107219 76.0477569,0.356013256 L74.4978292,6.15497714 L73.9811867,0.198267545 C72.3342981,0.0810436679 70.6772793,0 69,0 C67.3227207,0 65.6657019,0.0810436679 64.0188133,0.198267545 L63.5021708,6.15497714 L61.9522431,0.356013256 C58.6063676,0.696107219 55.3328509,1.2822266 52.146165,2.08253282 L52.6729378,8.06529217 L50.1432706,2.63102479 C46.9204052,3.54421326 43.7959479,4.68461345 40.7843705,6.03775326 L42.3400868,11.8265867 L38.8972504,6.90173665 C35.8958032,8.35907546 33.015919,10.0262595 30.2778582,11.8873694 L32.8176556,17.3245312 L28.5890014,13.0899996 C25.8929088,15.0422837 23.3444284,17.1827048 20.9609262,19.496791 L24.3936324,24.394144 L19.4963821,20.9613658 C17.1837916,23.344918 15.0419682,25.8934519 13.089725,28.5896011 L17.3241679,32.8183439 L11.8871201,30.2784932 C10.0260492,33.0166114 8.35890014,35.8965561 6.9015919,38.8980662 L11.8263386,42.3409749 L6.03762663,40.7852259 C4.68596237,43.7968665 3.54558611,46.9213893 2.63096961,50.1443223 L8.06512301,52.6740425 L2.08248915,52.1472587 C1.28219971,55.3354587 0.696092619,58.6075968 0.356005789,61.9535425 L6.15484805,63.5035027 L0.198263386,64.020156 C0.0810419682,65.6670792 0,67.3241327 0,69.0014472 C0,70.6787617 0.0810419682,72.3358153 0.198263386,73.9827384 L6.15484805,74.4993918 L0.358900145,76.0479047 C0.698986975,79.3938504 1.28509407,82.6674357 2.0853835,85.8541885 L8.06801737,85.3274047 L2.63386397,87.8571249 C3.54703329,91.0786107 4.68740955,94.2045807 6.03907381,97.2162213 L11.8277858,95.6604723 L6.90303907,99.103381 C8.36034732,102.104891 10.0274964,104.983389 11.8885673,107.722954 L17.3256151,105.183103 L13.0911722,109.411846 C15.0434153,112.107995 17.1837916,114.656529 19.4978292,117.040081 L24.3950796,113.607303 L20.9623734,118.504656 C23.3458755,120.817295 25.894356,122.959164 28.5904486,124.911448 L32.8191027,120.676916 L30.2793054,126.114078 C33.0173661,127.975188 35.8972504,129.642372 38.8986975,131.099711 L42.341534,126.174861 L40.7858177,131.963694 C43.7973951,133.315387 46.9218524,134.455787 50.1447178,135.370422 L52.6743849,129.936155 L52.1476122,135.917467 C55.3357453,136.717773 58.6078148,137.303893 61.9536903,137.643987 L63.5036179,131.845023 L64.0202605,137.801732 C65.6671491,137.918956 67.3241679,138 69.0014472,138 C70.6787265,138 72.3357453,137.918956 73.9826339,137.801732 L74.4992764,131.845023 L76.0492041,137.643987 C79.3950796,137.303893 82.6685962,136.717773 85.8552822,135.917467 L85.3285094,129.936155 L87.8581766,135.370422 C91.0795948,134.457234 94.2054993,133.316834 97.2170767,131.965141 L95.6613603,126.176308 L99.1041968,131.101158 C102.105644,129.643819 104.984081,127.975188 107.723589,126.115525 L105.183792,120.678363 L109.412446,124.912895 C112.108538,122.960611 114.657019,120.82019 117.040521,118.506103 L113.607815,113.60875 L118.505065,117.041529 C120.817656,114.657976 122.959479,112.109443 124.911722,109.413293 L120.677279,105.184551 L126.114327,107.724401 C127.975398,104.984836 129.642547,102.106338 131.099855,99.1048282 L126.175109,95.6619195 L131.963821,97.2176685 C133.315485,94.2060279 134.455861,91.0815051 135.36903,87.8585721 L129.934877,85.3288519 L135.917511,85.8556357 C136.7178,82.6674357 137.303907,79.3952976 137.643994,76.0493519 L131.845152,74.4993918 L137.801737,73.9827384 C137.918958,72.3329208 138,70.6758673 138,69 Z M69.0014472,114.589958 C43.8234443,114.589958 23.4109986,94.178531 23.4109986,68.9985528 C23.4109986,43.8200218 43.8219971,23.407148 69.0014472,23.407148 C94.1808973,23.407148 114.591896,43.8185746 114.591896,68.9985528 C114.591896,94.178531 94.1808973,114.589958 69.0014472,114.589958 Z" id="Shape" fill="#2B2B2B"></path>
                            <path d="M69,28 C46.3552664,28 28,46.356716 28,69 C28,91.643284 46.356716,110 69,110 C91.643284,110 110,91.643284 110,69 C110,46.356716 91.643284,28 69,28 Z M74.541951,39.6057703 C83.5108369,41.2945939 91.0880741,46.9771594 95.3137574,54.7500972 L76.9208005,60.6501078 C76.2104798,59.9774776 75.4044833,59.4208182 74.5405014,58.9438886 L74.5405014,39.6057703 L74.541951,39.6057703 Z M75.0681682,65.6136548 C76.1350988,65.6136548 77.0005304,66.4790864 77.0005304,67.546017 C77.0005304,68.6129477 76.1350988,69.4769296 75.0681682,69.4769296 C74.0012375,69.4769296 73.1372556,68.6114981 73.1372556,67.546017 C73.1372556,66.4776367 74.0012375,65.6136548 75.0681682,65.6136548 Z M72.8632748,72.9647491 C73.9302054,72.9647491 74.7941873,73.828731 74.7941873,74.8956617 C74.7941873,75.9625924 73.9302054,76.8265743 72.8632748,76.8265743 C71.7963441,76.8265743 70.9323622,75.9611427 70.9323622,74.8956617 C70.9309126,73.828731 71.7963441,72.9647491 72.8632748,72.9647491 Z M69,61.1734257 C70.0669307,61.1734257 70.9309126,62.0388573 70.9309126,63.1057879 C70.9309126,64.1727186 70.065481,65.0367005 69,65.0367005 C67.9330693,65.0367005 67.0676378,64.171269 67.0676378,63.1057879 C67.0676378,62.0388573 67.9330693,61.1734257 69,61.1734257 Z M67.0676378,74.8956617 C67.0676378,75.9625924 66.2036559,76.8265743 65.1367252,76.8265743 C64.0697946,76.8265743 63.2058127,75.9611427 63.2058127,74.8956617 C63.2058127,73.828731 64.0697946,72.9647491 65.1367252,72.9647491 C66.2036559,72.9647491 67.0676378,73.828731 67.0676378,74.8956617 Z M64.8627444,67.5445674 C64.8627444,68.6114981 63.9973129,69.47548 62.9318318,69.47548 C61.8649012,69.47548 60.9994696,68.6100484 60.9994696,67.5445674 C60.9994696,66.4776367 61.8649012,65.6122052 62.9318318,65.6122052 C63.9973129,65.6136548 64.8627444,66.4776367 64.8627444,67.5445674 Z M63.4725453,39.602871 L63.4725453,58.9438886 C62.6013153,59.4251671 61.7851713,59.9876251 61.0690521,60.6689531 L42.6543507,54.8138811 C46.875685,47.0047025 54.4732171,41.2916947 63.4725453,39.602871 Z M39.0694057,69.0014496 C39.0694057,67.7692607 39.1679808,66.5602659 39.3129442,65.3657674 L57.7001025,71.2121416 C57.8813068,72.1471555 58.1958774,73.0270834 58.5887282,73.8664215 L47.1931549,89.4354913 C42.1701729,84.0805431 39.0694057,76.9048545 39.0694057,69.0014496 Z M69,98.932044 C64.3858148,98.932044 60.0296645,97.8520666 56.1229007,95.9791394 L67.5373192,80.3839762 C68.0243963,80.4463105 68.5042252,80.5318389 69.0086978,80.5318389 C69.4319909,80.5318389 69.8320899,80.452109 70.243786,80.4071704 L81.3378354,96.2386239 C77.5687869,97.9520914 73.401089,98.932044 69,98.932044 Z M98.9305943,69.0014496 C98.9305943,77.1222996 95.6689177,84.4878903 90.3994979,89.8848778 L79.3170456,74.0693703 C79.7635329,73.1618994 80.1215925,72.2065905 80.3187427,71.1845985 L98.6769084,65.296185 C98.8276703,66.512428 98.9305943,67.7431673 98.9305943,69.0014496 Z" id="Shape" fill="#FFCB00"></path>
                        </g>
                    </g>
                </g>
            </g>
        </g>
    </g>
</svg>