<svg width="649px" height="955px" viewBox="0 0 649 955" version="1.1" xmlns="http://www.w3.org/2000/svg" xmlns:xlink="http://www.w3.org/1999/xlink">
    <g id="Page-1" stroke="none" stroke-width="1" fill="none" fill-rule="evenodd">
        <g id="Artboard" transform="translate(-2478.000000, -4008.000000)">
            <g id="Group-13" transform="translate(2499.000000, 3999.000000)">
                <g id="Group-11" transform="translate(0.000000, 216.000000)">
                    <path d="M173.860987,415.887446 L65.5536723,415.887446 L233.024699,204.744589 L118.316384,204.744589 L280.601695,0 L442.887006,204.744589 L328.178691,204.744589 L495.649718,415.887446 L392.139013,415.887446 L566,635.028139 L0,635.028139 L173.860987,415.887446 Z" id="Combined-Shape" stroke="#2B2B2B" stroke-width="40" fill="#FFCB00" stroke-linecap="round" stroke-linejoin="round"></path>
                    <rect id="Rectangle-4" fill="#2B2B2B" x="227" y="635" width="112" height="112.048827" rx="6.4"></rect>
                </g>
                <g id="Group-12" transform="translate(282.000000, 0.000000)">
                    <path d="M100.349881,54.5438607 L313.105225,54.5438607 L313.105225,54.5438607 C329.121483,54.5438607 342.105225,67.5276029 342.105225,83.5438607 L342.105225,153.543861 L342.105225,153.543861 C342.105225,169.560118 329.121483,182.543861 313.105225,182.543861 L100.349881,182.543861 L100.349881,182.543861 C92.5826762,182.543861 85.1401003,179.428065 79.6894946,173.894498 L45.2142297,138.894498 L45.2142297,138.894498 C34.0947451,127.605768 34.0947451,109.481954 45.2142297,98.1932236 L79.6894946,63.1932236 L79.6894946,63.1932236 C85.1401003,57.6596562 92.5826762,54.5438607 100.349881,54.5438607 Z" id="Rectangle-3" fill="#2B2B2B" transform="translate(189.489921, 118.543861) scale(1, -1) rotate(23.000000) translate(-189.489921, -118.543861) "></path>
                    <path d="M0.5,219.5 C23.2983927,217.575699 39.2438139,213.524447 48.3362637,207.346244 C57.4287135,201.168041 66.5939381,189.039847 75.8319376,170.961662" id="Line-2" stroke="#FFCB00" stroke-width="20" stroke-linecap="round" stroke-linejoin="round"></path>
                    <path d="M180.259627,133.556716 C181.762968,133.556716 183.834614,134.253375 186.474627,135.646716 C189.334641,137.150056 191.818783,138.204213 193.927127,138.809216 C196.035471,139.414219 198.501279,139.716716 201.324627,139.716716 C205.797982,139.716716 209.235448,138.855058 211.637127,137.131716 C214.038805,135.408374 215.239627,132.988398 215.239627,129.871716 C215.239627,127.048368 214.451301,124.866723 212.874627,123.326716 C211.517953,122.043376 209.17131,121.145051 205.834627,120.631716 L196.484627,119.256716 C189.847927,118.266711 184.787978,116.085066 181.304627,112.711716 C177.564608,109.081697 175.694627,103.966749 175.694627,97.3667156 C175.694627,91.390019 177.482109,86.3300696 181.057127,82.1867156 C184.632145,78.0433615 189.591262,75.3850548 195.934627,74.2117156 L195.934627,71.6267156 C195.934627,69.1333698 196.209624,67.3550542 196.759627,66.2917156 C197.786299,64.4217062 199.509615,63.4867156 201.929627,63.4867156 C204.349639,63.4867156 206.072955,64.4217062 207.099627,66.2917156 C207.64963,67.3550542 207.924627,69.1333698 207.924627,71.6267156 L207.924627,73.8267156 C212.177981,74.2667178 216.431272,75.4583725 220.684627,77.4017156 C224.864648,79.3450586 226.954627,81.8933665 226.954627,85.0467156 C226.954627,86.7333907 226.367966,88.3100416 225.194627,89.7767156 C223.984621,91.1700559 222.462969,91.8667156 220.629627,91.8667156 C219.089619,91.8667156 217.182971,91.2800548 214.909627,90.1067156 C211.022941,88.053372 206.897982,87.0267156 202.534627,87.0267156 C198.684608,87.0267156 195.714637,87.9342065 193.624627,89.7492156 C191.534616,91.5642247 190.489627,93.8100355 190.489627,96.4867156 C190.489627,99.0900619 191.241286,101.088375 192.744627,102.481716 C194.467969,104.021723 196.887945,105.030047 200.004627,105.506716 L209.189627,106.826716 C215.972994,107.816721 220.977944,109.8517 224.204627,112.931716 C228.23798,116.708401 230.254627,122.226679 230.254627,129.486716 C230.254627,135.793414 228.210481,140.972529 224.122127,145.024216 C220.033773,149.075903 214.63466,151.633377 207.924627,152.696716 L207.924627,157.371716 C207.924627,159.901728 207.64963,161.680044 207.099627,162.706716 C206.072955,164.576725 204.349639,165.511716 201.929627,165.511716 C199.509615,165.511716 197.786299,164.576725 196.759627,162.706716 C196.209624,161.680044 195.934627,159.901728 195.934627,157.371716 L195.934627,153.081716 C190.874601,152.67838 186.126316,151.39506 181.689627,149.231716 C178.97628,147.948376 176.9963,146.655889 175.749627,145.354216 C174.502954,144.052542 173.879627,142.356726 173.879627,140.266716 C173.879627,138.323373 174.576286,136.655056 175.969627,135.261716 C177.106299,134.125043 178.536285,133.556716 180.259627,133.556716 Z" id="$" fill="#FFFFFF" transform="translate(202.067127, 114.499216) rotate(-114.000000) translate(-202.067127, -114.499216) "></path>
                </g>
            </g>
        </g>
    </g>
</svg>