<svg width="463px" height="390px" viewBox="0 0 463 390" version="1.1" xmlns="http://www.w3.org/2000/svg" xmlns:xlink="http://www.w3.org/1999/xlink">
    <g id="Page-1" stroke="none" stroke-width="1" fill="none" fill-rule="evenodd">
        <g id="Artboard" transform="translate(-1290.000000, -2620.000000)">
            <g id="Group-8" transform="translate(1290.000000, 2620.000000)">
                <g id="car-wash-machine" transform="translate(0.000000, 161.000000)">
                    <path d="M291.969395,79.5025487 C286.371538,33.6336001 261.223274,0 230.098351,0 L91.9016488,0 C60.7767259,0 35.6104233,33.6517444 30.012567,79.5025487 C10.3509234,90.8155587 0,112.361989 0,137.407258 C0,153.087011 4.21492727,167.324288 12.0374956,178.709875 L12.0374956,229 L77.6755177,229 L77.6755177,203.827721 L244.324482,203.827721 L244.324482,229 L309.944466,229 L309.944466,178.709875 C317.767035,167.360576 322,153.1233 322,137.407258 C322,112.343845 311.613,90.8155587 291.969395,79.5025487 Z M63.3050809,70.9686501 C59.0360391,70.9686501 55.0886785,71.4736682 51.2495472,72.0694081 C57.4396579,41.9709347 73.5297369,19.8136439 91.9166807,19.8136439 L230.134428,19.8136439 C248.485295,19.8136439 264.575374,41.9709347 270.783523,72.0694081 C268.721155,71.763978 266.550557,71.6551119 264.37996,71.509957 C264.37996,71.3285133 264.452113,71.1500938 264.452113,70.9867945 C264.452113,51.9503341 249.059511,36.4671447 230.116389,36.4671447 C211.209344,36.4671447 195.816742,51.9503341 195.816742,70.9867945 L63.3050809,70.9867945 L63.3050809,70.9686501 Z M223.337031,156.585849 L98.6990458,156.585849 C95.0583347,156.585849 92.1331391,153.625294 92.1331391,149.981301 C92.1331391,146.355453 95.0763729,143.394897 98.6990458,143.394897 L223.337031,143.394897 C226.959703,143.394897 229.884899,146.355453 229.884899,149.981301 C229.884899,153.628318 226.941665,156.585849 223.337031,156.585849 Z M223.337031,137.694543 L98.6990458,137.694543 C95.0583347,137.694543 92.1331391,134.733988 92.1331391,131.089996 C92.1331391,127.446003 95.0763729,124.485448 98.6990458,124.485448 L223.337031,124.485448 C226.959703,124.485448 229.884899,127.446003 229.884899,131.089996 C229.884899,134.733988 226.941665,137.694543 223.337031,137.694543 Z M208.933524,70.9686501 C208.933524,59.2413438 218.439658,49.6580963 230.137434,49.6580963 C241.796127,49.6580963 251.323306,59.2201754 251.323306,70.9686501 L208.933524,70.9686501 Z" id="Shape" fill="#2B2B2B" fill-rule="nonzero"></path>
                    <path d="M54.9911752,160 C43.4071999,160 34,150.63788 34,139.008832 C34,127.379784 43.4071999,118 54.9911752,118 C66.5928001,118 76,127.379784 76,139.008832 C76,150.63788 66.5928001,160 54.9911752,160 Z" id="Path" fill="#FFCB00"></path>
                    <path d="M265.008825,160 C253.4072,160 244,150.63788 244,139.008832 C244,127.379784 253.4072,118 265.008825,118 C276.5928,118 286,127.379784 286,139.008832 C285.967643,150.63788 276.595742,160 265.008825,160 Z" id="Path" fill="#FFCB00"></path>
                </g>
                <g id="gears" transform="translate(276.000000, 0.000000)">
                    <path d="M136,125.391007 L136,109.079678 L121.196993,103.643329 C119.907732,98.6638121 118.178067,93.9613154 115.621906,89.6385235 L115.770228,89.6193557 L122.815758,74.9455034 L111.315087,63.4133423 L96.6572081,70.3954362 L96.6430604,70.4159732 C92.3202685,67.8598121 87.6259866,66.237396 82.645557,64.9495034 L77.2124027,50 L60.9019866,50 L55.4651812,64.9504161 C50.4847517,66.2378523 45.7840805,68.041906 41.4612886,70.5998926 L41.4393826,70.4867114 L26.7673557,63.4589799 L15.2351946,74.9683221 L22.2172886,89.6289396 L22.2401074,89.6467383 C19.6821208,93.9690738 17.1474094,98.6665503 15.8599732,103.646067 L0,109.079678 L0,125.391007 L15.8604295,130.827812 C17.1478658,135.809154 19.4082953,140.508 21.9667383,144.831705 L22.0803758,144.852242 L15.167651,159.523356 L26.7335839,171.057799 L41.4234094,164.076161 L41.4530738,164.055168 C45.7767785,166.609503 50.4811007,168.995893 55.4615302,170.285611 L60.9019866,186 L77.2124027,186 L82.6501208,170.286067 C87.6305503,168.996349 92.329396,166.811221 96.6521879,164.25506 L96.6750067,164.175195 L111.347946,171.108456 L122.879195,159.550282 L115.897101,144.863195 L115.876107,144.835356 C118.432268,140.512107 119.908188,135.810067 121.19745,130.830094 L136,125.391007 Z" id="Shape" fill="#2B2B2B" fill-rule="nonzero"></path>
                    <path d="M69.0578792,144.420054 C54.0444832,144.420054 41.873396,132.252161 41.873396,117.236027 C41.873396,102.223087 54.0444832,90.0506309 69.0578792,90.0506309 C84.0731007,90.0506309 96.2423624,102.223087 96.2423624,117.236027 C96.2423624,132.252161 84.0731007,144.420054 69.0578792,144.420054 Z" id="Path" fill="#FFCB00"></path>
                    <path d="M186.917841,27.0218116 L183.37047,18.4489549 L174.187704,18.9088155 C172.429679,16.5704332 170.3816,14.5265071 168.097483,12.8106634 L168.114732,12.7911239 L168.595886,3.55846713 L160.035442,0.0040896698 L153.848537,6.86882763 L153.844905,6.88291427 C151.017449,6.48167222 148.116911,6.45895183 145.225906,6.87155407 L139.039455,0 L130.475379,3.55119661 L130.954263,12.7847622 C128.615677,14.5446834 126.584392,16.6117843 124.870397,18.9010906 L124.853148,18.891548 L115.630892,18.4166919 L112.090784,26.9836413 L118.946311,33.1708573 L118.963559,33.1803999 C118.631745,35.8318691 118.493754,38.9322932 118.903188,41.8314147 L112,48.0395335 L115.546009,56.6142078 L124.812296,56.120721 C126.568051,58.4581945 128.657891,60.4889427 130.937922,62.2029688 L130.943823,62.214329 L130.476287,71.4442593 L139.857869,74.9954559 L146.865005,68.1289003 L146.865005,68.1139049 C148.680678,68.4460769 151.775492,68.5387761 154.669221,68.1320812 L160.447146,75 L168.808319,71.4497122 L168.224581,62.214329 C170.559536,60.4534989 172.546336,58.3863981 174.260331,56.0998182 L174.249891,56.1048167 L183.45853,56.5805816 L187,48.0086337 L180.136303,41.8177825 L180.121323,41.8091487 C180.51941,38.9818237 180.508062,36.0926992 180.098627,33.1967586 L186.917841,27.0218116 Z" id="Shape" fill="#2B2B2B" fill-rule="nonzero"></path>
                    <path d="M155.449506,51.7874886 C147.56994,55.0546804 138.531974,51.3089973 135.267394,43.4168434 C132.000999,35.5265071 135.742647,26.4801575 143.626298,23.2116025 C151.511312,19.943502 160.545646,23.6900939 163.812495,31.5804302 C167.074806,39.4739473 163.331342,48.5184792 155.449506,51.7874886 Z" id="Path" fill="#FFCB00"></path>
                </g>
            </g>
        </g>
    </g>
</svg>