<svg width="612px" height="426px" viewBox="0 0 612 426" version="1.1" xmlns="http://www.w3.org/2000/svg" xmlns:xlink="http://www.w3.org/1999/xlink">
    <g id="Page-1" stroke="none" stroke-width="1" fill="none" fill-rule="evenodd">
        <g id="Artboard" transform="translate(-2428.000000, -2619.000000)">
            <g id="logistics-truck" transform="translate(2428.000000, 2619.000000)">
                <path d="M12.57,292.084 L329.419,292.084 C334.154,292.084 338.029,288.209 338.029,283.475 L338.029,26.809 C338.029,12.543 326.465,0.979 312.199,0.979 L29.791,0.979 C15.525,0.979 3.961,12.543 3.961,26.809 L3.961,283.473 C3.96,288.209 7.835,292.084 12.57,292.084 Z M113.48,361.221 L8.61,361.221 C3.874,361.221 0,357.348 0,352.612 L0,326.438 C0,321.702 3.874,317.827 8.61,317.827 L137.244,317.827 C124.673,328.762 115.977,344.002 113.48,361.221 Z M603.39,317.828 L582.468,317.828 L582.468,200.817 C582.468,187.128 578.335,173.696 570.672,162.331 L518.238,84.668 C505.408,65.726 484.055,54.361 461.153,54.361 L379.875,54.361 C370.317,54.361 362.654,62.11 362.654,71.581 L362.654,317.828 L229.543,317.828 C242.2,328.762 250.896,344.002 253.393,361.223 L393.736,361.223 C398.73,327.041 428.176,300.608 463.736,300.608 C499.296,300.608 528.655,327.042 533.649,361.223 L603.39,361.223 C608.126,361.223 612,357.348 612,352.612 L612,326.438 C612,321.703 608.126,317.828 603.39,317.828 Z M183.394,317.828 C153.862,317.828 129.839,341.849 129.839,371.469 C129.839,401 153.861,425.022 183.394,425.022 C213.012,425.022 236.948,401.001 236.948,371.469 C236.947,341.85 213.012,317.828 183.394,317.828 Z M463.735,317.828 C434.117,317.828 410.18,341.849 410.18,371.469 C410.18,401 434.117,425.022 463.735,425.022 C493.267,425.022 517.289,401.001 517.289,371.469 C517.29,341.85 493.269,317.828 463.735,317.828 Z" id="Shape" fill="#2B2B2B" fill-rule="nonzero"></path>
                <path d="M463.735,398.246 C448.925,398.246 436.958,386.191 436.958,371.469 C436.958,356.658 448.926,344.692 463.735,344.692 C478.544,344.692 490.512,356.659 490.512,371.469 C490.513,386.191 478.545,398.246 463.735,398.246 Z" id="Path" fill="#FFCB00"></path>
                <path d="M183.394,398.246 C168.584,398.246 156.617,386.191 156.617,371.469 C156.617,356.658 168.585,344.692 183.394,344.692 C198.203,344.692 210.171,356.659 210.171,371.469 C210.171,386.191 198.202,398.246 183.394,398.246 Z" id="Path" fill="#FFCB00"></path>
                <path d="M517.634,177.828 L410.354,177.828 C405.619,177.828 401.744,174.039 401.744,169.218 L401.744,109.723 C401.744,104.988 405.619,101.113 410.354,101.113 L475.705,101.113 C478.546,101.113 481.129,102.49 482.765,104.729 L524.696,164.311 C528.654,169.994 524.608,177.828 517.634,177.828 Z" id="Path" fill="#FFCB00"></path>
                <g id="gears" transform="translate(70.000000, 53.000000)" fill-rule="nonzero" fill="#FFCB00">
                    <path d="M136,125.391007 L136,109.079678 L121.196993,103.643329 C119.907732,98.6638121 118.178067,93.9613154 115.621906,89.6385235 L115.770228,89.6193557 L122.815758,74.9455034 L111.315087,63.4133423 L96.6572081,70.3954362 L96.6430604,70.4159732 C92.3202685,67.8598121 87.6259866,66.237396 82.645557,64.9495034 L77.2124027,50 L60.9019866,50 L55.4651812,64.9504161 C50.4847517,66.2378523 45.7840805,68.041906 41.4612886,70.5998926 L41.4393826,70.4867114 L26.7673557,63.4589799 L15.2351946,74.9683221 L22.2172886,89.6289396 L22.2401074,89.6467383 C19.6821208,93.9690738 17.1474094,98.6665503 15.8599732,103.646067 L0,109.079678 L0,125.391007 L15.8604295,130.827812 C17.1478658,135.809154 19.4082953,140.508 21.9667383,144.831705 L22.0803758,144.852242 L15.167651,159.523356 L26.7335839,171.057799 L41.4234094,164.076161 L41.4530738,164.055168 C45.7767785,166.609503 50.4811007,168.995893 55.4615302,170.285611 L60.9019866,186 L77.2124027,186 L82.6501208,170.286067 C87.6305503,168.996349 92.329396,166.811221 96.6521879,164.25506 L96.6750067,164.175195 L111.347946,171.108456 L122.879195,159.550282 L115.897101,144.863195 L115.876107,144.835356 C118.432268,140.512107 119.908188,135.810067 121.19745,130.830094 L136,125.391007 Z M69.0578792,144.420054 C54.0444832,144.420054 41.873396,132.252161 41.873396,117.236027 C41.873396,102.223087 54.0444832,90.0506309 69.0578792,90.0506309 C84.0731007,90.0506309 96.2423624,102.223087 96.2423624,117.236027 C96.2423624,132.252161 84.0731007,144.420054 69.0578792,144.420054 Z" id="Shape"></path>
                    <path d="M186.917841,27.0218116 L183.37047,18.4489549 L174.187704,18.9088155 C172.429679,16.5704332 170.3816,14.5265071 168.097483,12.8106634 L168.114732,12.7911239 L168.595886,3.55846713 L160.035442,0.0040896698 L153.848537,6.86882763 L153.844905,6.88291427 C151.017449,6.48167222 148.116911,6.45895183 145.225906,6.87155407 L139.039455,0 L130.475379,3.55119661 L130.954263,12.7847622 C128.615677,14.5446834 126.584392,16.6117843 124.870397,18.9010906 L124.853148,18.891548 L115.630892,18.4166919 L112.090784,26.9836413 L118.946311,33.1708573 L118.963559,33.1803999 C118.631745,35.8318691 118.493754,38.9322932 118.903188,41.8314147 L112,48.0395335 L115.546009,56.6142078 L124.812296,56.120721 C126.568051,58.4581945 128.657891,60.4889427 130.937922,62.2029688 L130.943823,62.214329 L130.476287,71.4442593 L139.857869,74.9954559 L146.865005,68.1289003 L146.865005,68.1139049 C148.680678,68.4460769 151.775492,68.5387761 154.669221,68.1320812 L160.447146,75 L168.808319,71.4497122 L168.224581,62.214329 C170.559536,60.4534989 172.546336,58.3863981 174.260331,56.0998182 L174.249891,56.1048167 L183.45853,56.5805816 L187,48.0086337 L180.136303,41.8177825 L180.121323,41.8091487 C180.51941,38.9818237 180.508062,36.0926992 180.098627,33.1967586 L186.917841,27.0218116 Z M155.449506,51.7874886 C147.56994,55.0546804 138.531974,51.3089973 135.267394,43.4168434 C132.000999,35.5265071 135.742647,26.4801575 143.626298,23.2116025 C151.511312,19.943502 160.545646,23.6900939 163.812495,31.5804302 C167.074806,39.4739473 163.331342,48.5184792 155.449506,51.7874886 Z" id="Shape"></path>
                </g>
            </g>
        </g>
    </g>
</svg>