<svg width="15px" height="33px" viewBox="0 0 15 33" version="1.1" xmlns="http://www.w3.org/2000/svg" xmlns:xlink="http://www.w3.org/1999/xlink">
    <g id="Page-1" stroke="none" stroke-width="1" fill="none" fill-rule="evenodd">
        <g id="Artboard" transform="translate(-1350.000000, -431.000000)" fill="#000000">
            <g id="Group-10" transform="translate(1355.500000, 447.500000) scale(-1, 1) translate(-1355.500000, -447.500000) translate(1319.000000, 411.000000)">
                <path d="M37.4520137,36.25 L27.2358631,50.2797713 C26.6830096,51.0390013 27.1352009,51.9608454 28.2458608,52.3387676 C29.3565206,52.7166898 30.7050646,52.4075787 31.2579182,51.6483487 L41.7641369,37.2202287 C41.9915369,36.9079419 42.0488988,36.5681432 41.9603406,36.25 C42.0488988,35.9318568 41.9915369,35.5920581 41.7641369,35.2797713 L31.2579182,20.8516513 C30.7050646,20.0924213 29.3565206,19.7833102 28.2458608,20.1612324 C27.1352009,20.5391546 26.6830096,21.4609987 27.2358631,22.2202287 L37.4520137,36.25 Z" id="Combined-Shape" transform="translate(34.500000, 36.250000) scale(-1, 1) translate(-34.500000, -36.250000) "></path>
            </g>
        </g>
    </g>
</svg>