<svg version="1" xmlns="http://www.w3.org/2000/svg" width="400" height="400" viewBox="0 0 300.000000 300.000000"><path d="M132 1c-18.8 2.6-34.1 7.4-51.1 16.1C40.7 37.8 12.7 75 2.9 121c-3.3 15.1-3.3 42.9 0 58 9.8 46 37.7 83 78.1 103.9 13.2 6.8 24.9 11 40 14.2 15.1 3.3 42.9 3.3 58 0 15.1-3.2 26.8-7.4 40-14.2C259.4 262 287.3 225 297.1 179c3.3-15.1 3.3-42.9 0-58-9.8-46-37.7-83-78.1-103.9C197.5 6 178.7 1.2 154 .5c-8.5-.2-18.4 0-22 .5zm29.3 63.5c25.3 5.3 43.8 27.9 43.8 53.6 0 10-1.3 16.1-5.2 24.5l-2.9 6.2v110.5l-9-.7c-16.4-1.2-33-7.1-46.6-16.4-6.7-4.5-18.5-16.4-23.3-23.5-4.8-7-9.8-18.2-12.2-27.2-1.7-6.2-2.3-11.9-2.6-25.5-.5-14.9-.8-18.1-2.5-21.5-6-11.8-7.9-24.5-5.4-36.3 6.5-30.8 35.6-50.1 65.9-43.7z"/><path d="M137.8 72.1c-6.9 1.6-16.1 7-22 12.9-3.2 3.2-5.8 6.3-5.8 6.8s3.1 3.2 6.9 6c12.9 9.7 23.7 23.6 29.7 38.4 3.3 8.1 3.3 8.2 4.4 5.3 6.3-17.6 19.7-35.5 33.5-45 3-2.1 5.5-4.1 5.5-4.5 0-1.5-10.1-11.1-14.7-14-9.7-6.2-25.7-8.7-37.5-5.9zM186.7 104.1c-6.9 5.2-7.8 6.5-5.2 7.6 2.5.9 4.7 6.1 4 9.2-.8 3.6-4.3 6.9-8 7.7-2.2.4-4-.1-6.6-1.9l-3.6-2.4-3.5 6.6c-2 3.6-4.5 9.5-5.7 13-2.2 6.5-4.9 21.6-4 22.5.9 1 10.6-1.7 16.9-4.7 19.8-9.3 31-33 25.5-54.1-2.4-9.2-2.2-9.1-9.8-3.5zM103.9 103.7c-2.1 7.1-2.3 20.8-.4 27.9 3.3 12.4 14 24.9 25.8 30.5 5.9 2.7 15.7 5.3 16.6 4.3.3-.2-.3-4.8-1.3-10.1-1.7-9.8-5.3-19.6-10.1-27.9l-2.7-4.6-2.1 2c-4.8 4.4-11.5 3.5-14.2-1.9-2.3-4.4-1.8-7.7 1.5-11.1l3-3-2.2-1.9c-4-3.4-10.6-7.9-11.7-7.9-.5 0-1.5 1.7-2.2 3.7z"/><path d="M110.3 170.2c.4 6.2 1.4 14.2 2.3 17.8 1.8 7.4 10.1 25 13.8 29.5l2.5 3 .1-19.8v-19.8l3.8.3 3.7.3.3 24.1.2 24.1 4 3.2 4 3.2V199h8v42l4 2 4 2v-31h8v33.8l6.9 1.6c3.9.9 8.4 1.6 10 1.6h3.1V158.7l-3.2 2.7c-10 8-19.9 11.7-32.7 12.4-14.5.7-25.9-2.6-36.8-10.8-2.9-2.2-5.5-4-5.9-4-.4 0-.4 5.1-.1 11.2z"/></svg>