<svg width="102px" height="138px" viewBox="0 0 102 138" version="1.1" xmlns="http://www.w3.org/2000/svg" xmlns:xlink="http://www.w3.org/1999/xlink">
    <g id="Page-1" stroke="none" stroke-width="1" fill="none" fill-rule="evenodd">
        <g id="Artboard" transform="translate(-668.000000, -1822.000000)" fill-rule="nonzero">
            <g id="Group-14" transform="translate(107.000000, 1707.000000)">
                <g id="Group-13" transform="translate(0.000000, 115.000000)">
                    <g id="Group-11" transform="translate(453.000000, 0.000000)">
                        <g id="Gasoline_by_Mitchell_Geere" transform="translate(108.000000, 0.000000)">
                            <path d="M1.87124397,11.9271825 C2.97740181,11.4268598 14.162037,5.62908202 15.2803653,5.23587445 C16.3986935,4.84266689 17.8834873,4.81283735 18.6975546,6.16465784 C19.203304,7.0039526 21.4061538,11.2614414 21.4061538,11.2614414 C21.4061538,11.2614414 22.8098113,13.9827089 22.8990612,14.1603303 C23.0288793,14.430152 23.0640383,14.8070889 22.817925,14.9318306 C22.5718116,15.0565723 5.39391046,23.8237451 5.14103575,23.9511986 C4.88816103,24.0786521 4.62852496,23.9539104 4.44732062,23.606803 C3.57510569,21.9309253 0.981449513,16.939901 0.378336555,15.7792607 C-0.346480812,14.3772724 -0.123356063,12.8315599 1.87124397,11.9271825 Z" id="Shape" fill="#FFCB00"></path>
                            <path d="M65,91.1836617 C65,93.8432638 62.8515983,96 60.1991646,96 L45.8008354,96 C43.149794,96 41,93.8432638 41,91.1836617 L41,71.8163383 C41,69.1567362 43.1484017,67 45.8008354,67 L60.1991646,67 C62.850206,67 65,69.1553393 65,71.8163383 L65,91.1836617 Z" id="Shape" fill="#FFCB00"></path>
                            <path d="M88.1040319,0.000473850229 C78.4832144,0.0142738028 54.2933742,0.0584336512 48.3369705,0.000473850229 C42.3805668,-0.0561059555 39.0014399,4.9656968 36.3659979,8.90420328 C33.7305559,12.8427098 31.439951,18.3212909 31.439951,18.3212909 C31.439951,18.3212909 30.0855304,18.9850687 28.0054285,20.0090251 C27.2243516,19.2031079 25.1220915,18.1432716 24.5944491,18.4040907 C19.0839794,21.1171613 11.3535341,24.8776484 7.41075776,26.9228014 C6.80002211,27.2402003 6.42056277,29.7931916 6.62137155,30.7343483 C6.64214487,30.7233084 6.65737864,30.7150284 6.62137155,30.7357283 C3.75742298,32.3903426 2,36.2998692 2,38.8735604 C2,40.4715949 2,117.814809 2,122.095555 C2,130.390706 7.98271654,137.828881 18.235043,137.828881 C28.4859847,137.828881 81.4122527,138 86.7385323,138 C94.859516,138 101.999999,130.639105 101.999999,122.164554 C101.999999,116.913672 101.999999,17.5346936 101.999999,14.8519829 C102.002769,7.99202641 96.2180912,0.000473850229 88.1040319,0.000473850229 Z M44.1559934,7.30616876 C45.8746395,4.39575876 49.407489,3.42562209 51.1247502,3.42562209 C52.8420115,3.42562209 77.0886321,3.42562209 77.0886321,3.42562209 C77.0886321,3.42562209 80.2960329,3.19654288 81.4413354,5.08023641 C82.1282398,5.99379327 81.8443378,7.47728818 81.4413354,8.56196445 C81.2308324,9.12914251 79.0357847,12.3528114 76.1718362,14.7250233 C74.2939279,16.280278 72.3910917,17.2931945 67.8666623,18.0922117 C63.3422329,18.891229 53.6632501,18.60557 49.2537664,18.60557 C44.8428979,18.60557 41.2920448,19.9179455 41.2920448,19.9179455 L37.1110677,21.2882808 C37.1110677,21.2896607 42.8168066,9.57626097 44.1559934,7.30616876 Z M68.7502209,68.7076779 L68.7502209,93.1308341 C68.7502209,94.1299506 68.5120202,95.0697274 68.0993235,95.9115245 L89.9085411,117.64093 C90.7159309,118.445467 90.7159309,119.750943 89.9085411,120.55686 C89.1011514,121.361397 87.7910472,121.361397 86.9822726,120.55686 L65.1744399,98.8260745 C64.3324279,99.2359331 63.3865494,99.4746723 62.3852753,99.4746723 L42.65062,99.4746723 C41.6493459,99.4746723 40.7048523,99.2373131 39.8614554,98.8260745 L18.0522378,120.55686 C17.2448481,121.361397 15.933359,121.361397 15.1259693,120.55686 C14.3185795,119.752323 14.3185795,118.446847 15.1259693,117.64093 L36.933802,95.9101445 C36.5211054,95.0697274 36.2829046,94.1285706 36.2829046,93.1294541 L36.2829046,68.7076779 C36.2829046,67.7085614 36.5211054,66.7687846 36.933802,65.9283675 L15.1259693,44.1975821 C14.3185795,43.3930449 14.3185795,42.0875693 15.1259693,41.2816521 C15.933359,40.4771149 17.2434632,40.4771149 18.0522378,41.2816521 L39.8600705,63.0124375 C40.7034674,62.6025789 41.6479611,62.3652197 42.6492351,62.3652197 L62.3838904,62.3652197 C63.3865494,62.3652197 64.331043,62.6025789 65.173055,63.0138175 L86.9808877,41.2830321 C87.7882775,40.4784949 89.0983816,40.4784949 89.9071562,41.2830321 C90.7159309,42.0875693 90.714546,43.3930449 89.9071562,44.1989621 L68.0993235,65.9283675 C68.5120202,66.7687846 68.7502209,67.7085614 68.7502209,68.7076779 Z" id="Shape" fill="#2B2B2B"></path>
                        </g>
                    </g>
                </g>
            </g>
        </g>
    </g>
</svg>