<svg width="17px" height="17px" viewBox="0 0 17 17" version="1.1" xmlns="http://www.w3.org/2000/svg" xmlns:xlink="http://www.w3.org/1999/xlink">
    <g id="Page-1" stroke="none" stroke-width="1" fill="none" fill-rule="evenodd">
        <g id="Artboard" transform="translate(-132.000000, -3581.000000)" fill-rule="nonzero" fill="#030104">
            <g id="icon" transform="translate(132.000000, 3581.000000)">
                <path d="M11.7692308,11.6116538 L11.7692308,13.8125 C11.7692308,14.4885769 11.2193462,15.0384615 10.5432692,15.0384615 L3.1875,15.0384615 C2.51142308,15.0384615 1.96153846,14.4885769 1.96153846,13.8125 L1.96153846,6.45673077 C1.96153846,5.78065385 2.51142308,5.23076923 3.1875,5.23076923 L5.42953846,5.23076923 L7.39173077,3.26923077 L3.1875,3.26923077 C1.42669231,3.26923077 0,4.69592308 0,6.45673077 L0,13.8125 C0,15.5733077 1.42669231,17 3.1875,17 L10.5432692,17 C12.3040769,17 13.7307692,15.5733077 13.7307692,13.8125 L13.7307692,9.64946154 L11.7692308,11.6116538 Z" id="Shape"></path>
                <path d="M14.7645,-5.80732565e-16 L8.05669231,-5.80732565e-16 C6.82353846,0.00130769231 6.90919231,0.333461538 7.55976923,0.983384615 L9.66515385,3.08876923 L6.05592308,6.69734615 C5.30726923,7.44534615 5.30792308,8.65757692 6.05592308,9.40492308 L7.63169231,10.9813462 C8.37969231,11.7273846 9.59061538,11.7280385 10.3386154,10.9806923 L13.9478462,7.37146154 L16.014,9.43761538 C16.7338846,10.1568462 16.9993462,10.1758077 16.9993462,8.94265385 L17,2.2355 C16.9993462,-0.0117692308 17.0156923,-0.000653846154 14.7645,-5.80732565e-16 Z" id="Shape"></path>
            </g>
        </g>
    </g>
</svg>