<svg width="18px" height="15px" viewBox="0 0 18 15" version="1.1" xmlns="http://www.w3.org/2000/svg" xmlns:xlink="http://www.w3.org/1999/xlink">
    <g id="Page-1" stroke="none" stroke-width="1" fill="none" fill-rule="evenodd">
        <g id="Artboard" transform="translate(-132.000000, -3518.000000)" fill-rule="nonzero" fill="#000000">
            <g id="new-email-interface-symbol-of-closed-envelope-back" transform="translate(132.000000, 3518.000000)">
                <path d="M16.875,0.0112951807 L1.125,0.0112951807 C0.504,0.0112951807 0,0.527439759 0,1.16340361 L0,13.8365964 C0,14.4731325 0.504,14.9887048 1.125,14.9887048 L16.875,14.9887048 C17.4965588,14.9887048 18,14.4731325 18,13.8365964 L18,1.16340361 C18,0.527439759 17.4965588,0.0112951807 16.875,0.0112951807 Z M16.3125,13.2605422 L1.6875,13.2605422 L1.6875,4.4475 L8.27661765,10.1101205 C8.48644118,10.2898494 8.7435,10.3803012 9,10.3803012 C9.25705882,10.3803012 9.51355882,10.2898494 9.72338235,10.1101205 L16.3125,4.4475 L16.3125,13.2605422 Z M16.3125,2.19165663 L9,8.47527108 L1.6875,2.19165663 L1.6875,1.73945783 L16.3125,1.73945783 L16.3125,2.19165663 Z" id="Shape"></path>
            </g>
        </g>
    </g>
</svg>