<svg width="130px" height="80px" viewBox="0 0 130 80" version="1.1" xmlns="http://www.w3.org/2000/svg" xmlns:xlink="http://www.w3.org/1999/xlink">
    <g id="Page-1" stroke="none" stroke-width="1" fill="none" fill-rule="evenodd">
        <g id="Artboard" transform="translate(-655.000000, -25.000000)" fill="#FFCB00">
            <g id="Group-2" transform="translate(655.000000, 25.000000)">
                <g id="logo" fill-rule="nonzero">
                    <g id="Group" transform="translate(23.000000, 40.000000) scale(-1, 1) rotate(-180.000000) translate(-23.000000, -40.000000) ">
                        <path d="M21.4123395,79.9698606 C16.4702545,79.6232576 11.9013474,77.794801 8.14435427,74.6502574 C7.48877157,74.1077483 6.27846505,72.912219 5.63296825,72.1838503 C1.36159483,67.3464775 -0.640453865,60.8012056 0.181545977,54.3764913 C0.559766764,51.4077609 1.5885273,48.4189376 3.12662517,45.8018335 L3.53006067,45.1086274 L3.53006067,41.079995 C3.53006067,36.8855959 3.57544717,34.9114655 3.71160665,33.5049604 C4.37727523,26.3669471 7.09037901,19.6508853 11.583642,14.0298882 C13.3486723,11.8146427 15.6129541,9.57930428 17.8268064,7.85633555 C18.759751,7.13299008 20.2142356,6.11118689 21.003861,5.64611327 C24.6073464,3.52373227 30.5406325,0.945999874 35.3510362,0.381765666 C37.2339712,0.160907617 38.8558821,0 40.8881885,0 L42.1590103,0 L42.1590103,22.5342208 L42.1590103,45.0684415 L42.5876605,45.8068567 C45.9361752,51.5232952 46.6270585,58.3448449 44.4888504,64.5987693 C44.075329,65.7993219 43.2987156,67.5021977 42.6784335,68.5671229 C39.5064219,73.9972372 34.3676621,77.8550797 28.3161295,79.3469798 C27.4285714,79.568002 26.117406,79.7890242 25.1390749,79.8945121 C24.2162162,79.9899535 22.2898117,80.0301394 21.4123395,79.9698606 Z M24.1052715,76.8052242 C28.6439209,76.4887605 32.6328894,74.8059776 36.0772201,71.7418059 C36.7025451,71.1842271 37.610275,70.2247897 38.1801276,69.5114906 C38.6642503,68.9087028 39.2845323,68.0447068 39.2845323,67.9794047 C39.2845323,67.9492654 39.1433299,67.8437775 38.9718698,67.7382896 C38.326373,67.3414542 37.1160665,66.5226673 36.3848397,65.9801582 C30.066031,61.3085521 25.3458356,54.6979781 22.9907809,47.2284315 C22.9252226,47.0325254 22.8596643,46.8818285 22.8445355,46.9019214 C22.8243637,46.9270375 22.7235048,47.2133618 22.622646,47.5448951 C21.7653455,50.2624639 20.2575053,53.4522165 18.6135056,56.034158 C16.2080214,59.8116288 13.0259239,63.2274268 9.40509022,65.9198794 C8.60326215,66.5176441 7.43329919,67.3163381 6.77267355,67.7181967 C6.58608463,67.833731 6.41966748,67.9341957 6.40958159,67.9442421 C6.39949571,67.9492654 6.54574108,68.180334 6.73233,68.4515886 C8.078796,70.3905563 9.97494287,72.2340826 12.0072492,73.5803089 C15.5826964,75.9462514 19.8994563,77.0965716 24.1052715,76.8052242 Z M5.89015838,64.5284441 C6.99960602,63.8000753 7.97289418,63.0767299 8.95122528,62.2679895 C9.73288157,61.6149692 10.6910409,60.74595 10.6910409,60.6856712 C10.6910409,60.6605551 10.5851391,60.6052995 10.4590655,60.5550672 C9.7933969,60.3039056 8.94113939,59.5202813 8.58309038,58.8371217 C8.28555669,58.25945 8.16452604,57.827452 8.13426838,57.2146176 C8.03845245,55.386161 9.16302892,53.7937963 10.9179734,53.2663569 C11.5332125,53.0804973 12.4308565,53.0654276 13.0259239,53.2362175 C13.9840832,53.5074721 14.8262548,54.1353761 15.345678,54.9692327 L15.436451,55.1098832 L15.7289418,54.6678388 C18.578205,50.3428356 20.4491372,45.1337436 21.0290757,39.9095818 C21.1349775,38.9451212 21.2307935,37.7646616 21.2005358,37.7294989 C21.1904499,37.7194525 20.9383027,37.7395454 20.640769,37.7696848 C17.2014814,38.1564737 13.8126231,39.4926535 11.0692617,41.5572021 C10.0203294,42.3408263 8.70412103,43.5765415 7.86194941,44.5560718 C5.92545899,46.80648 4.46300528,49.6395831 3.75699314,52.5028256 C3.3838153,54.0097953 3.23252699,55.1802085 3.19218344,56.8378752 C3.141754,59.1184227 3.45945946,61.2281803 4.18564337,63.3931935 C4.47813411,64.2772824 4.83618312,65.1513249 4.90174139,65.1513249 C4.92695611,65.1513249 5.37577811,64.8700239 5.89015838,64.5284441 Z M41.0798203,64.613839 C42.4464581,61.3587844 42.8650225,57.5511742 42.2548263,53.9244004 C41.3874399,48.7404245 38.331416,44.0286324 33.8885825,41.0297627 C31.1906075,39.201306 27.9782523,38.0359161 24.866756,37.7495919 L24.4935781,37.7144292 L24.5288787,38.2318222 C24.9171854,44.0738415 26.7225593,49.574281 29.8390986,54.4417933 L30.2677488,55.10486 L30.4694666,54.8185357 C31.0191474,54.024865 31.7705461,53.4924024 32.7287054,53.2161246 C33.1724844,53.0905438 34.1810732,53.0905438 34.645024,53.2161246 C35.6737846,53.4873791 36.6369868,54.240864 37.1311953,55.1450458 C37.433772,55.7076479 37.5800173,56.2903428 37.5850603,56.963456 C37.5901032,57.6616853 37.5043732,58.0534974 37.1917107,58.6964712 C36.803404,59.5001884 36.1629501,60.1280924 35.366165,60.4897652 C35.1644472,60.5801833 35.003073,60.6706015 34.9980301,60.6856712 C34.9980301,60.7308803 36.2789378,61.8711541 36.9345205,62.40864 C38.1801276,63.4283561 40.6763848,65.1814643 40.8175873,65.1362552 C40.842802,65.1262087 40.9587897,64.89514 41.0798203,64.613839 Z M7.25679615,40.6279041 C12.4358995,35.7453221 19.7784257,33.5652392 26.8284611,34.8160241 C31.1653928,35.5845787 35.0131589,37.4883838 38.3415019,40.5073465 L38.9819557,41.0950647 L38.9819557,22.1474319 L38.9819557,3.19979907 L38.417146,3.2349617 C36.1377354,3.37058897 33.389331,3.86788899 31.0040186,4.57616476 L30.6610984,4.67662941 L30.6610984,11.6338064 L30.6610984,18.5859601 L29.0876999,18.5759136 L27.5092585,18.5608439 L27.4840438,12.1964084 L27.4588291,5.83197287 L26.7780317,6.13336682 C26.4048538,6.29913349 25.6433693,6.66582946 25.0886455,6.94713048 L24.0800567,7.45950019 L24.0649279,16.1145297 L24.054842,24.764536 L22.4764006,24.7544895 L20.9030021,24.7394198 L20.8777874,17.1091297 L20.8525727,9.48386287 L20.373493,9.8455356 C19.4859349,10.523672 18.850524,11.0511114 17.9175794,11.8950144 L17.4990151,12.2717569 L17.4889292,21.9967349 L17.4738003,31.7217129 L15.9004019,31.7367826 L14.3219604,31.7468291 L14.3118746,23.7046339 L14.2967457,15.6574155 L13.8933102,16.1798317 C11.9719486,18.6562853 10.5246237,21.1176692 9.33953195,23.9206329 C7.93255063,27.2359663 7.11055078,30.6768806 6.80797415,34.5096069 C6.74241589,35.2781615 6.67685762,41.0900414 6.72728705,41.0900414 C6.74745883,41.0900414 6.98447719,40.8790657 7.25679615,40.6279041 Z" id="Shape"></path>
                    </g>
                </g>
                <path d="M68.45,37 L68.45,18.52 L64.91,18.52 L64.91,15.64 L75.05,15.64 L75.05,18.52 L71.51,18.52 L71.51,37 L68.45,37 Z M85.97,30.91 L85.97,32.23 C85.97,32.8900033 85.8450012,33.514997 85.595,34.105 C85.3449988,34.695003 85.0000022,35.2199977 84.56,35.68 C84.1199978,36.1400023 83.6050029,36.5049986 83.015,36.775 C82.4249971,37.0450013 81.7900034,37.18 81.11,37.18 C80.5299971,37.18 79.940003,37.1000008 79.34,36.94 C78.739997,36.7799992 78.2000024,36.500002 77.72,36.1 C77.2399976,35.699998 76.8450016,35.1850032 76.535,34.555 C76.2249985,33.9249968 76.07,33.1200049 76.07,32.14 L76.07,20.38 C76.07,19.6799965 76.1899988,19.030003 76.43,18.43 C76.6700012,17.829997 77.0099978,17.3100022 77.45,16.87 C77.8900022,16.4299978 78.414997,16.0850013 79.025,15.835 C79.635003,15.5849987 80.3099963,15.46 81.05,15.46 C82.4900072,15.46 83.6599955,15.9299953 84.56,16.87 C85.0000022,17.3300023 85.3449988,17.8749969 85.595,18.505 C85.8450012,19.1350032 85.97,19.8199963 85.97,20.56 L85.97,21.76 L82.91,21.76 L82.91,20.74 C82.91,20.139997 82.7400017,19.6200022 82.4,19.18 C82.0599983,18.7399978 81.6000029,18.52 81.02,18.52 C80.2599962,18.52 79.7550012,18.7549976 79.505,19.225 C79.2549987,19.6950024 79.13,20.2899964 79.13,21.01 L79.13,31.93 C79.13,32.5500031 79.2649986,33.0699979 79.535,33.49 C79.8050013,33.9100021 80.2899965,34.12 80.99,34.12 C81.190001,34.12 81.4049988,34.0850004 81.635,34.015 C81.8650011,33.9449996 82.079999,33.8300008 82.28,33.67 C82.4600009,33.5099992 82.6099994,33.2900014 82.73,33.01 C82.8500006,32.7299986 82.91,32.3800021 82.91,31.96 L82.91,30.91 L85.97,30.91 Z M99.14,18.52 C98.8599986,18.52 98.6300009,18.5549996 98.45,18.625 C98.2699991,18.6950004 98.1000008,18.8199991 97.94,19 C97.7799992,19.1800009 97.6700003,19.3999987 97.61,19.66 C97.5499997,19.9200013 97.5000002,20.2099984 97.46,20.53 L97.19,23.02 C97.1699999,23.2800013 97.1400002,23.5199989 97.1,23.74 C97.0599998,23.940001 97.0200002,24.144999 96.98,24.355 C96.9399998,24.5650011 96.8800004,24.7499992 96.8,24.91 C96.6799994,25.1900014 96.5350008,25.4349989 96.365,25.645 C96.1949992,25.855001 96.0300008,26.0199994 95.87,26.14 L99.05,37 L95.93,37 L93.23,27.49 L91.52,27.49 L91.52,37 L88.46,37 L88.46,15.64 L91.52,15.64 L91.52,24.79 L92.54,24.79 C92.9000018,24.79 93.1899989,24.7400005 93.41,24.64 C93.6300011,24.5399995 93.8099993,24.4000009 93.95,24.22 C94.0900007,24.0399991 94.1899997,23.8350012 94.25,23.605 C94.3100003,23.3749989 94.3599998,23.1200014 94.4,22.84 L94.7,20.29 C94.7200001,20.2099996 94.7449998,20.0450012 94.775,19.795 C94.8050001,19.5449988 94.8599996,19.2600016 94.94,18.94 C95.0200004,18.6199984 95.1299993,18.2900017 95.27,17.95 C95.4100007,17.6099983 95.5899989,17.2900015 95.81,16.99 C96.1900019,16.5099976 96.6549972,16.165001 97.205,15.955 C97.7550027,15.7449989 98.3999963,15.64 99.14,15.64 L99.14,18.52 Z M71.99,64.06 C71.0099951,64.06 70.1400038,63.9000016 69.38,63.58 C68.6199962,63.2599984 68.0200022,62.8200028 67.58,62.26 C67.2599984,61.859998 66.995001,61.4000026 66.785,60.88 C66.5749989,60.3599974 66.4100006,59.8200028 66.29,59.26 C66.1699994,58.6999972 66.0850002,58.1300029 66.035,57.55 C65.9849998,56.9699971 65.96,56.4200026 65.96,55.9 C65.96,54.6199936 66.0849987,53.3950059 66.335,52.225 C66.5850013,51.0549941 66.9999971,50.1500032 67.58,49.51 C68.1000026,48.9299971 68.7549961,48.5150012 69.545,48.265 C70.335004,48.0149988 71.1499958,47.89 71.99,47.89 L72.35,47.89 L72.35,45.64 L75.41,45.64 L75.41,47.89 L75.77,47.89 C76.6100042,47.89 77.4249961,48.0149988 78.215,48.265 C79.005004,48.5150012 79.6599974,48.9299971 80.18,49.51 C80.7600029,50.1500032 81.1749988,51.0549941 81.425,52.225 C81.6750013,53.3950059 81.8,54.6199936 81.8,55.9 C81.8,56.4200026 81.7750003,56.9699971 81.725,57.55 C81.6749997,58.1300029 81.5900006,58.6999972 81.47,59.26 C81.3499994,59.8200028 81.185001,60.3599974 80.975,60.88 C80.764999,61.4000026 80.5000016,61.859998 80.18,62.26 C79.7399978,62.8200028 79.1400038,63.2599984 78.38,63.58 C77.6199962,63.9000016 76.7500049,64.06 75.77,64.06 L75.41,64.06 L75.41,67 L72.35,67 L72.35,64.06 L71.99,64.06 Z M75.35,50.65 L75.35,61.36 L76.01,61.36 C76.5100025,61.36 76.9299983,61.2700009 77.27,61.09 C77.6100017,60.9099991 77.8899989,60.6700015 78.11,60.37 C78.2500007,60.1899991 78.3699995,59.9350017 78.47,59.605 C78.5700005,59.2749984 78.6549997,58.910002 78.725,58.51 C78.7950003,58.109998 78.8449998,57.6850022 78.875,57.235 C78.9050002,56.7849978 78.92,56.3500021 78.92,55.93 C78.92,55.529998 78.9000002,55.1000023 78.86,54.64 C78.8199998,54.1799977 78.7600004,53.7400021 78.68,53.32 C78.5999996,52.8999979 78.5000006,52.5150017 78.38,52.165 C78.2599994,51.8149983 78.1200008,51.5500009 77.96,51.37 C77.6799986,51.0899986 77.3750017,50.9050005 77.045,50.815 C76.7149984,50.7249995 76.3400021,50.6700001 75.92,50.65 L75.35,50.65 Z M71.84,50.65 C71.4199979,50.6700001 71.0450017,50.7249995 70.715,50.815 C70.3849984,50.9050005 70.0800014,51.0899986 69.8,51.37 C69.6399992,51.5500009 69.5000006,51.8149983 69.38,52.165 C69.2599994,52.5150017 69.1600004,52.8999979 69.08,53.32 C68.9999996,53.7400021 68.9400002,54.1799977 68.9,54.64 C68.8599998,55.1000023 68.84,55.529998 68.84,55.93 C68.84,56.3500021 68.8549998,56.7849978 68.885,57.235 C68.9150001,57.6850022 68.9649996,58.109998 69.035,58.51 C69.1050003,58.910002 69.1899995,59.2749984 69.29,59.605 C69.3900005,59.9350017 69.5099993,60.1899991 69.65,60.37 C69.8700011,60.6700015 70.1499983,60.9099991 70.49,61.09 C70.8300017,61.2700009 71.2499975,61.36 71.75,61.36 L72.41,61.36 L72.41,50.65 L71.84,50.65 Z M90.59,67 L90.59,57.34 L90.53,57.34 L87.14,67 L84.02,67 L84.02,51.79 L86.9,51.79 L86.9,61.45 L86.96,61.45 L90.32,51.79 L93.47,51.79 L93.47,67 L90.59,67 Z M94.94,64.12 C95.1600011,64.12 95.3849988,64.0600006 95.615,63.94 C95.8450012,63.8199994 96.0799988,63.6100015 96.32,63.31 C96.520001,63.0699988 96.6799994,62.7250023 96.8,62.275 C96.9200006,61.8249978 97.0099997,61.3550025 97.07,60.865 C97.1300003,60.3749976 97.1699999,59.9050022 97.19,59.455 C97.2100001,59.0049978 97.22,58.6600012 97.22,58.42 L97.22,51.79 L105.62,51.79 L105.62,67 L102.56,67 L102.56,54.34 L100.1,54.34 L100.1,57.16 C100.1,57.8600035 100.08,58.5649964 100.04,59.275 C99.9999998,59.9850036 99.9350004,60.6649968 99.845,61.315 C99.7549995,61.9650033 99.6400007,62.5699972 99.5,63.13 C99.3599993,63.6900028 99.1800011,64.169998 98.96,64.57 C98.5399979,65.3500039 97.9900034,65.9499979 97.31,66.37 C96.6299966,66.7900021 95.8600043,67 95,67 L94.79,67 L94.79,64.12 L94.94,64.12 Z M114.71,67 L114.71,57.34 L114.65,57.34 L111.26,67 L108.14,67 L108.14,51.79 L111.02,51.79 L111.02,61.45 L111.08,61.45 L114.44,51.79 L117.59,51.79 L117.59,67 L114.71,67 Z M120.11,67 L120.11,51.79 L123.17,51.79 L123.17,58 L126.26,58 L126.26,51.79 L129.32,51.79 L129.32,67 L126.26,67 L126.26,60.55 L123.17,60.55 L123.17,67 L120.11,67 Z" id="ТСК-Филин"></path>
            </g>
        </g>
    </g>
</svg>